<?xml version="1.0" encoding="utf-8"?>
<!-- Generator: Adobe Illustrator 24.1.2, SVG Export Plug-In . SVG Version: 6.00 Build 0)  -->
<svg version="1.1" id="TEXTO" xmlns="http://www.w3.org/2000/svg" xmlns:xlink="http://www.w3.org/1999/xlink" x="0px" y="0px"
	 viewBox="0 0 320 418" style="enable-background:new 0 0 320 418;" xml:space="preserve">
<style type="text/css">
	.st0{opacity:0.5;fill:#585858;enable-background:new    ;}
	.st1{fill:#585858;}
	.st2{fill:#E5E7EF;}
	.st3{fill:#FFFFFF;}
</style>
<path d="M290.8,93.5L290.8,93.5v261.7H29.2V93.5L290.8,93.5 M290.8,80.6H29.2c-7.1,0-12.8,5.7-12.8,12.8v261.7
	c0,7.1,5.7,12.8,12.8,12.8h261.7c7.1,0,12.8-5.7,12.8-12.8V93.5C303.7,86.4,297.9,80.6,290.8,80.6L290.8,80.6z"/>
<path d="M290.8,418H29.2c-7.1,0-12.8-5.7-12.8-12.8v-48.4h287.4v48.4C303.7,412.3,297.9,418,290.8,418z"/>
<path class="st0" d="M320.5,81.6v4.9L253.2,86c0.6,4.1,0.4,8.7-2,13.2c-2.7,5-8.6,11-21.3,11c-16.8,0-39.7-10.9-53.1-22.2
	c-2.5,1.7-5.5,2.7-8.6,2.7h-12c-3.1,0-6.1-1-8.5-2.7c-13.3,11.2-36.3,22.2-53.1,22.2c-12.7,0-18.6-6-21.3-11
	c-2.4-4.5-2.6-9.1-2-13.2l-71.9,0.6l0.3-4.9L320.5,81.6L320.5,81.6z"/>
<g>
	<path class="st1" d="M100.8,27.7c0,0-74-2.7-96-0.6c11.6,10.5,22.1,24.6,22.1,24.6L-0.2,81.6c0,0,103.1-0.7,118.8-0.8
		C115.9,70.1,100.8,27.7,100.8,27.7L100.8,27.7z"/>
	<path class="st1" d="M219.5,27.7c0,0,74-2.7,96-0.6c-11.6,10.5-22.1,24.6-22.1,24.6l27.1,29.9c0,0-103.1-0.7-118.8-0.8
		C204.5,70.1,219.5,27.7,219.5,27.7L219.5,27.7z"/>
	<g>
		<path d="M172.1,29.2c0,0,33.2-28.6,58.4-28.4s23.7,15.9,22.6,20.4c-1.9,8-11.6,27.6-11.6,38.4S253,84.9,247,96.5
			c-12,23.4-65-5.1-74.9-22.1S172.1,29.2,172.1,29.2L172.1,29.2z"/>
		<path class="st1" d="M185.8,29.9c0,0,42.7-30.7,55.1-17.9C254.7,26.3,185.8,29.9,185.8,29.9z"/>
	</g>
	<g>
		<path d="M152.5,29.2c0,0-33.2-28.6-58.4-28.4S70.4,16.8,71.5,21.3c1.9,8,11.6,27.6,11.6,38.4s-11.4,25.2-5.5,36.8
			c12,23.4,65-5.1,74.9-22.1C162.3,57.4,152.5,29.2,152.5,29.2L152.5,29.2z"/>
		<path class="st1" d="M138.7,29.9c0,0-42.7-30.7-55.1-17.9C69.9,26.3,138.7,29.9,138.7,29.9z"/>
	</g>
	<path class="st1" d="M156.3,25.9h12c5.7,0,10.3,4.6,10.3,10.3v38.5c0,5.7-4.6,10.3-10.3,10.3h-12c-5.7,0-10.3-4.6-10.3-10.3V36.1
		C146,30.5,150.6,25.9,156.3,25.9z"/>
</g>
<g>
	<path class="st2" d="M60.2,119h198.1c6.8,0,12.3,5.5,12.3,12.3v198.1c0,6.8-5.5,12.3-12.3,12.3H60.2c-6.8,0-12.3-5.5-12.3-12.3
		V131.2C47.9,124.4,53.4,119,60.2,119z"/>
</g>
<g>
</g>
</svg>
