<?xml version="1.0" encoding="utf-8"?>
<!-- Generator: Adobe Illustrator 24.1.2, SVG Export Plug-In . SVG Version: 6.00 Build 0)  -->
<svg version="1.1" id="TEXTO" xmlns="http://www.w3.org/2000/svg" xmlns:xlink="http://www.w3.org/1999/xlink" x="0px" y="0px"
	 viewBox="0 0 320 418" style="enable-background:new 0 0 320 418;" xml:space="preserve">
<style type="text/css">
	.st0{fill:#585858;}
	.st1{fill:#FFFFFF;}
	.st2{fill:#E5E7EF;}
</style>
<path d="M256.3,83.3c1.7,0,3.2,1.4,3.2,3.2v195.8h-199V86.4c0-1.7,1.4-3.2,3.2-3.2H256.3 M256.3,73.8H63.7c-7,0-12.6,5.6-12.6,12.6
	v205.3h217.9V86.4C268.9,79.4,263.3,73.8,256.3,73.8L256.3,73.8z"/>
<polygon class="st0" points="51.1,302 2.3,302 20.9,271 2.3,240 51.1,240 "/>
<path class="st1" d="M51.1,285v-32.5c0,0-16.8,6.6-16.8,15.3C34.3,285,51.1,285,51.1,285L51.1,285z"/>
<polygon class="st0" points="268.9,302 317.7,302 299.1,271 317.7,240 268.9,240 "/>
<path class="st1" d="M268.9,285v-32.5c0,0,16.8,6.6,16.8,15.3C285.7,285,268.9,285,268.9,285L268.9,285z"/>
<g>
	<path d="M34.3,267.9v-0.9C34.3,267.2,34.3,267.6,34.3,267.9z"/>
	<path d="M34.3,266.9L34.3,266.9C34.3,266.9,34.3,266.9,34.3,266.9L34.3,266.9z"/>
	<path d="M285.7,266.9v0.9C285.7,267.6,285.7,267.2,285.7,266.9z"/>
	<path d="M285.7,307.1v-39.2c-0.5,16.8-31.6,14.4-48.7,14.4H82.9c-17.1,0-48.1,2.4-48.7-14.4v39.2c0,0.1,0,0.2,0,0.3v21
		c0,8.7,7.1,15.8,15.8,15.8H270c8.7,0,15.8-7.1,15.8-15.8v-21C285.7,307.3,285.7,307.2,285.7,307.1L285.7,307.1z"/>
</g>
<g>
	<path class="st2" d="M80.7,94.5h157.1c5.4,0,9.7,4.3,9.7,9.7v157.1c0,5.4-4.3,9.7-9.7,9.7H80.7c-5.4,0-9.7-4.3-9.7-9.7V104.1
		C71,98.8,75.4,94.5,80.7,94.5z"/>
</g>
<g>
</g>
</svg>
