<?xml version="1.0" encoding="utf-8"?>
<!-- Generator: Adobe Illustrator 24.1.2, SVG Export Plug-In . SVG Version: 6.00 Build 0)  -->
<svg version="1.1" id="TEXTO" xmlns="http://www.w3.org/2000/svg" xmlns:xlink="http://www.w3.org/1999/xlink" x="0px" y="0px"
	 viewBox="0 0 320 418" style="enable-background:new 0 0 320 418;" xml:space="preserve">
<style type="text/css">
	.st0{fill:#585858;}
	.st1{fill:#E5E7EF;}
	.st2{fill:#FFFFFF;}
</style>
<g>
	<g>
		<path class="st0" d="M267.4,287.9c-20.6,0-37.3,16.7-37.3,37.3c0,20.6,16.7,37.3,37.3,37.3s37.3-16.7,37.3-37.3
			C304.7,304.6,288,287.9,267.4,287.9z M267.4,349.1c-13.2,0-23.8-10.7-23.8-23.8s10.7-23.8,23.8-23.8s23.8,10.7,23.8,23.8
			S280.5,349.1,267.4,349.1z"/>
		<circle class="st0" cx="267.4" cy="325.2" r="11.9"/>
	</g>
	<g>
		<path class="st0" d="M110,287.9c-20.6,0-37.3,16.7-37.3,37.3c0,20.6,16.7,37.3,37.3,37.3s37.3-16.7,37.3-37.3
			C147.3,304.6,130.6,287.9,110,287.9z M110,349.1c-13.2,0-23.8-10.7-23.8-23.8s10.7-23.8,23.8-23.8s23.8,10.7,23.8,23.8
			S123.2,349.1,110,349.1z"/>
		<circle class="st0" cx="110" cy="325.2" r="11.9"/>
	</g>
	<path d="M315.1,314.8L315.1,314.8c0-26.4-21.4-47.7-47.7-47.7s-47.7,21.4-47.7,47.7c0,0,0,0,0,0H315.1L315.1,314.8z"/>
	<path class="st0" d="M275.3,267.5l-32.1-67.8l3.9-0.9l-6.3-27.9c-0.9-4-4.9-6.6-9-5.7l-32.5,7.3l5.9,26c1.1,5.1,6.2,8.2,11.3,7.1
		l0,0l10.9,66.3c0.9,5.2-0.8,10.5-4.6,14.3l-13.9,13.9c-3.1,3.1-7.3,4.8-11.6,4.8h-22.8v-41.6h9.7c2.1,0,3.8-1.7,3.8-3.8v-14.7
		c0-2.1-1.7-3.8-3.8-3.8H89.6c-2.1,0-3.8,1.7-3.8,3.8v8.6C62,263,45.3,286.3,45.3,313.5c0,1.6,0.1,3.3,0.2,4.9
		c0.3,3.8,3.4,6.8,7.3,6.8h153.5c4.1,0,8.1-1.6,11.1-4.3l57.7-53.2l0-0.1L275.3,267.5L275.3,267.5z"/>
	<path d="M182.7,176.3L211,170c2.6-0.6,5.2,1.1,5.8,3.6l0.3,1.4c0.6,2.6-1.1,5.2-3.6,5.8l-28.3,6.4c-2.6,0.6-5.2-1.1-5.8-3.6
		l-0.3-1.4C178.5,179.5,180.2,176.9,182.7,176.3z"/>
	<path d="M264.8,176.1c0-1.8-1.5-3.3-3.3-3.3c-2.6,0-5.9,0.1-6.5,0.1c-9.2,0-16.7,7.5-16.7,16.7c0,9.2,7.5,16.7,16.7,16.7
		c0.7,0,3.9,0.1,6.5,0.1c1.8,0,3.3-1.5,3.3-3.3V176.1z"/>
	<path d="M159.5,325.2C159.5,325.2,159.5,325.2,159.5,325.2c0-27.4-22.1-49.5-49.5-49.5s-49.5,22.1-49.5,49.5v0H159.5L159.5,325.2z"
		/>
</g>
<path d="M158.3,62.4c3.1,0,5.6,2.5,5.6,5.6v146.6H11.8V68c0-3.1,2.5-5.6,5.6-5.6H158.3 M158.3,55.6h-141c-6.9,0-12.4,5.6-12.4,12.4
	v153.4h165.8V68C170.7,61.1,165.2,55.6,158.3,55.6L158.3,55.6z"/>
<path d="M158.3,256.5h-141c-6.9,0-12.4-5.6-12.4-12.4v-29h165.8v29C170.7,250.9,165.2,256.5,158.3,256.5L158.3,256.5z"/>
<g>
	<path class="st1" d="M30.5,74.6h114.6c3.9,0,7.1,3.2,7.1,7.1v114.6c0,3.9-3.2,7.1-7.1,7.1H30.5c-3.9,0-7.1-3.2-7.1-7.1V81.7
		C23.4,77.8,26.6,74.6,30.5,74.6z"/>
</g>
<g>
</g>
</svg>
