<?xml version="1.0" encoding="utf-8"?>
<!-- Generator: Adobe Illustrator 24.1.2, SVG Export Plug-In . SVG Version: 6.00 Build 0)  -->
<svg version="1.1" id="TEXTO" xmlns="http://www.w3.org/2000/svg" xmlns:xlink="http://www.w3.org/1999/xlink" x="0px" y="0px"
	 viewBox="0 0 320 418" style="enable-background:new 0 0 320 418;" xml:space="preserve">
<style type="text/css">
	.st0{opacity:0.5;fill:#585858;enable-background:new    ;}
	.st1{fill:#585858;}
	.st2{fill:#E5E7EF;}
	.st3{fill:#FFFFFF;}
</style>
<g>
	<path d="M135.2,164.7v-24.1h-96c-4.3,0-8.2,2.7-9.7,6.7l-6.5,17h-8.9c-4.7,0-8.6,3.8-8.6,8.5v12.1c0,4.7,3.8,8.6,8.6,8.6h4.3
		l11.9,168.5h106.1l-11.9-168.5h7.8c4.7,0,8.6-3.8,8.6-8.6v-12.1C140.8,169,138.5,165.9,135.2,164.7z M35.5,356.3L24,193.6h94.9
		l11.5,162.7H35.5z M34.7,149.2c0.7-1.9,2.5-3.1,4.4-3.1h90.4v18.1H29L34.7,149.2z M135.3,184.8c0,1.7-1.4,3-3,3H14.2
		c-1.7,0-3-1.4-3-3v-12.1c0-1.7,1.4-3,3-3h118.1c1.7,0,3,1.4,3,3L135.3,184.8L135.3,184.8z"/>
	<polygon points="138,306.5 133.6,244.3 16.2,244.3 20.6,306.5 	"/>
</g>
<path class="st0" d="M293,83.6c-0.3-5.3-4.6-9.5-9.8-9.6c-23.8-0.2-85.3-0.5-91.2-0.6l0,0c0,0-0.1,0-0.2,0c-0.2,0-0.2,0-0.2,0l0,0
	c-5.9,0-67.5,0.4-91.2,0.6c-5.2,0-9.5,4.2-9.8,9.6L74.7,351c-0.3,5.9,4.2,10.8,9.9,10.8h214.3c5.7,0,10.3-4.9,9.9-10.8L293,83.6
	L293,83.6z"/>
<path d="M298.6,83.6c-0.3-5.3-4.6-9.5-9.8-9.6c-23.8-0.2-85.3-0.5-91.2-0.6l0,0c0,0-0.1,0-0.2,0c-0.2,0-0.2,0-0.2,0l0,0
	c-5.9,0-67.5,0.4-91.2,0.6c-5.2,0-9.5,4.2-9.8,9.6L80.2,351c-0.3,5.9,4.2,10.8,9.9,10.8h214.3c5.7,0,10.3-4.9,9.9-10.8L298.6,83.6
	L298.6,83.6z"/>
<path class="st1" d="M94.6,107c0.9,0.2,1.8,0.4,2.7,0.4h200.4c0.8,0,1.5-0.1,2.2-0.2l-1.4-23.6c-0.3-5.3-4.6-9.5-9.8-9.6
	c-23.8-0.2-85.3-0.5-91.2-0.6l0,0c0,0-0.1,0-0.2,0c-0.2,0-0.2,0-0.2,0l0,0c-5.9,0-67.5,0.4-91.2,0.6c-5.2,0-9.5,4.2-9.8,9.6
	L94.6,107L94.6,107z"/>
<path d="M300.3,98.5H94.3c-4.9,0-8.8-4-8.8-9l2.2-29.6c0.2-2.1,1.9-3.7,3.9-3.7h211.7c2,0,3.7,1.6,3.8,3.6l2.2,29.6
	C309.2,94.4,305.2,98.5,300.3,98.5z"/>
<g>
	<path class="st2" d="M122.2,124.8h154.7c5.3,0,9.6,4.3,9.6,9.6V289c0,5.3-4.3,9.6-9.6,9.6H122.2c-5.3,0-9.6-4.3-9.6-9.6V134.3
		C112.6,129,116.9,124.8,122.2,124.8z"/>
</g>
<g>
</g>
</svg>
