<?xml version="1.0" encoding="utf-8"?>
<!-- Generator: Adobe Illustrator 24.1.2, SVG Export Plug-In . SVG Version: 6.00 Build 0)  -->
<svg version="1.1" id="TEXTO" xmlns="http://www.w3.org/2000/svg" xmlns:xlink="http://www.w3.org/1999/xlink" x="0px" y="0px"
	 viewBox="0 0 320 418" style="enable-background:new 0 0 320 418;" xml:space="preserve">
<style type="text/css">
	.st0{fill:#585858;}
	.st1{fill:#E5E7EF;}
	.st2{fill:#FFFFFF;}
</style>
<path class="st0" d="M22.6,60.6l-0.1-11.8L285,5c6.9-0.6,12.4,4.5,12.5,11.3l0.1,44.2L22.6,60.6L22.6,60.6z"/>
<path d="M301.8,61.2V328H34.9V61.2H301.8 M301.8,48.8H22.5v291.7h279.3c6.9,0,12.4-5.6,12.4-12.4V61.2
	C314.2,54.3,308.6,48.8,301.8,48.8L301.8,48.8z"/>
<path d="M301.8,408.1H22.5v-80.6h291.7v68.2C314.2,402.6,308.6,408.1,301.8,408.1z"/>
<g>
	<path class="st0" d="M11.8,92.4h34.4c4.2,0,7.7,3.4,7.7,7.7v0.7c0,4.2-3.4,7.7-7.7,7.7H11.8c-4.3,0-7.7-3.5-7.7-7.8v-0.7
		C4.1,95.9,7.5,92.4,11.8,92.4z"/>
	<path class="st0" d="M11.8,177.7h34.4c4.2,0,7.7,3.4,7.7,7.7v0.7c0,4.2-3.4,7.7-7.7,7.7H11.8c-4.3,0-7.7-3.5-7.7-7.7v-0.7
		C4.1,181.2,7.5,177.7,11.8,177.7z"/>
	<path class="st0" d="M11.8,263h34.4c4.2,0,7.7,3.4,7.7,7.7v0.7c0,4.2-3.4,7.7-7.7,7.7H11.8c-4.3,0-7.7-3.5-7.7-7.8v-0.7
		C4.1,266.5,7.5,263,11.8,263z"/>
	<path class="st0" d="M11.8,348.3h34.4c4.2,0,7.7,3.4,7.7,7.7v0.7c0,4.2-3.4,7.7-7.7,7.7H11.8c-4.2,0-7.7-3.4-7.7-7.7V356
		C4.1,351.8,7.5,348.3,11.8,348.3z"/>
</g>
<g>
	<path class="st1" d="M73,80.6H274c6.9,0,12.5,5.5,12.5,12.5v201.1c0,6.9-5.5,12.5-12.5,12.5H73c-6.9,0-12.5-5.5-12.5-12.5V93
		C60.5,86.1,66.1,80.6,73,80.6z"/>
</g>
<g>
</g>
</svg>
