<?xml version="1.0" encoding="utf-8"?>
<!-- Generator: Adobe Illustrator 24.1.2, SVG Export Plug-In . SVG Version: 6.00 Build 0)  -->
<svg version="1.1" id="Layer_1" xmlns="http://www.w3.org/2000/svg" xmlns:xlink="http://www.w3.org/1999/xlink" x="0px" y="0px"
	 viewBox="0 0 320 418" style="enable-background:new 0 0 320 418;" xml:space="preserve">
<style type="text/css">
	.st0{fill:#585858;}
	.st1{fill:#E5E7EF;}
	.st2{fill:#FFFFFF;}
</style>
<g id="Layer_1_1_">
	<path d="M283.8,92.4c-0.2,0-0.3,0-0.5,0s-0.3,0-0.5-0.1c-0.2,0-0.3-0.1-0.4-0.1c-0.2,0-0.3-0.1-0.4-0.2c-0.2-0.1-0.3-0.1-0.4-0.2
		c-0.1-0.1-0.3-0.2-0.4-0.3c-0.1-0.1-0.3-0.2-0.4-0.3c-0.1-0.1-0.3-0.2-0.4-0.3c-0.1-0.1-0.2-0.2-0.3-0.4c-0.1-0.1-0.2-0.3-0.3-0.4
		c-0.1-0.1-0.2-0.3-0.3-0.4c-0.1-0.1-0.1-0.3-0.2-0.4c-0.1-0.2-0.1-0.3-0.2-0.4c0-0.2-0.1-0.3-0.1-0.4c0-0.2-0.1-0.3-0.1-0.5
		c0-0.2,0-0.3,0-0.5c0-0.2,0-0.3,0-0.5c0-0.2,0-0.3,0.1-0.5c0-0.2,0.1-0.3,0.1-0.4c0.1-0.2,0.1-0.3,0.2-0.4c0.1-0.2,0.1-0.3,0.2-0.4
		c0.1-0.1,0.2-0.3,0.3-0.4c0.1-0.1,0.2-0.3,0.3-0.4c0.1-0.1,0.2-0.3,0.3-0.4c0.9-0.9,2.1-1.4,3.4-1.4s2.5,0.5,3.4,1.4
		c0.1,0.1,0.2,0.2,0.3,0.4c0.1,0.1,0.2,0.3,0.3,0.4c0.1,0.1,0.2,0.3,0.3,0.4c0.1,0.1,0.1,0.3,0.2,0.4c0.1,0.2,0.1,0.3,0.2,0.4
		c0,0.2,0.1,0.3,0.1,0.4c0,0.2,0.1,0.3,0.1,0.5c0,0.2,0,0.3,0,0.5c0,0.2,0,0.3,0,0.5c0,0.2,0,0.3-0.1,0.5c0,0.2-0.1,0.3-0.1,0.4
		c-0.1,0.1-0.1,0.3-0.2,0.4c-0.1,0.2-0.1,0.3-0.2,0.4s-0.2,0.3-0.3,0.4c-0.1,0.1-0.2,0.3-0.3,0.4c-0.1,0.1-0.2,0.2-0.3,0.4
		c-0.1,0.1-0.2,0.2-0.4,0.3c-0.1,0.1-0.3,0.2-0.4,0.3c-0.1,0.1-0.3,0.2-0.4,0.3c-0.1,0.1-0.3,0.1-0.4,0.2c-0.2,0.1-0.3,0.1-0.4,0.2
		c-0.2,0-0.3,0.1-0.4,0.1c-0.2,0-0.3,0.1-0.5,0.1C284.1,92.4,284,92.4,283.8,92.4z"/>
</g>
<path class="st0" d="M127.8,150.8c-3,0-5.6-2.1-6.3-5.1L99.1,38.2c-1.1-4.9-4.8-9-9.6-10.6h0L47.6,13.5c-3.3-1.1-5.2-4.7-4-8.1
	c1.1-3.4,4.8-5.2,8.1-4l41.8,14.1c9.1,3,16,10.7,18.1,20c0,0,0,0.1,0,0.1L134.1,143c0.7,3.5-1.5,6.9-5,7.6
	C128.6,150.7,128.2,150.8,127.8,150.8L127.8,150.8z"/>
<path d="M17.2,71.3h143.3h143c1.8,0.1,2.8,1,3.1,1.3c0.4,0.4,0.6,0.8,0.6,1.2c-3.5,56.4-7.7,112-12.3,165.2v0v0
	c-0.5,6.7-1.1,13.4-1.7,19.9c-4.1,48.5-7.9,94.4-7.8,142.3c0,1.9-1.2,3.2-1.9,3.2H38c-1.3-0.2-3.3-2.3-3.4-5.1v-0.1v-0.1
	c-1-19.6-1.8-38.7-2.7-57c-1.7-37-3.2-71.9-5.6-107.4c-1.9-30.1-4.5-61-6.9-90.9c-1.9-22.8-3.8-46.4-5.5-69.8
	c0.1-0.9,0.5-1.5,0.9-1.9C15.1,71.9,15.9,71.3,17.2,71.3 M303.8,58.5c-47.8,0-95.5,0-143.3,0s-95.5,0-143.3,0c-9,0-16.2,7.1-16.1,16
	c3.9,54.6,9.1,108.2,12.5,161.1c3.6,53.2,5.3,105.7,8.3,164.2c0.3,9.2,7.4,17.1,15.8,17.5h245.8c8.1,0,14.6-7.2,14.7-16
	c-0.1-54,5-106.5,9.4-161.2c4.7-54.4,8.9-110.8,12.4-165.7C320.3,66,313.1,58.8,303.8,58.5L303.8,58.5L303.8,58.5z"/>
<path d="M16,108.6l11.1,269.9c0,21.1,4.2,30.8,14.2,30.8h238.9c10,0,14-12.3,14-24.3l10.8-267c0,0-27.1-6.7-64.9-4.1
	c-31.5,2.2-91.5,9.6-123.1,9.2C75.8,122.6,16,108.6,16,108.6L16,108.6z"/>
<path d="M265.6,92.4h-49.4c-2.7,0-4.8-2.1-4.8-4.8s2.1-4.8,4.8-4.8h49.4c2.7,0,4.8,2.1,4.8,4.8S268.2,92.4,265.6,92.4z"/>
<g>
	<path d="M132.8,166.3H78.3v54.4h54.4V166.3z M120,207.9H91.1v-28.8H120V207.9z"/>
	<rect x="99.1" y="187.1" width="12.8" height="12.8"/>
	<path d="M242.3,166.3h-54.4v54.4h54.4V166.3z M229.5,207.9h-28.8v-28.8h28.8V207.9z"/>
	<rect x="208.7" y="187.1" width="12.8" height="12.8"/>
	<path d="M132.8,275.8H78.3v54.4h54.4V275.8z M120,317.5H91.1v-28.8H120V317.5z"/>
	<rect x="99.1" y="296.7" width="12.8" height="12.8"/>
	<rect x="91.1" y="229.4" width="12.8" height="12.8"/>
	<polygon points="116.4,255 116.4,267.8 129.3,267.8 129.3,255 116.8,255 116.8,242.2 104,242.2 104,255 	"/>
	<rect x="168" y="191" width="12.8" height="12.8"/>
	<rect x="142.4" y="179.1" width="12.8" height="24.7"/>
	<rect x="155.2" y="166.3" width="12.8" height="12.8"/>
	<polygon points="168,203.8 155.2,203.8 155.2,216.6 142.4,216.6 142.4,229.4 168,229.4 	"/>
	<polygon points="155.2,267.8 155.2,280.3 168,280.3 168,292.8 193.6,292.8 193.6,280 168,280 168,267.5 155.2,267.5 155.2,242.2 
		142.4,242.2 142.4,267.8 	"/>
	<rect x="168" y="229.4" width="12.8" height="25.6"/>
	<path d="M206.4,267.5h35.9v-25.6h-12.8v-12.5h-23.4v12.8h-12.5V255h12.8V267.5z M206.4,242.2h23.1v12.5h-23.1V242.2z"/>
	<rect x="229.5" y="280" width="12.8" height="25.6"/>
	<rect x="180.8" y="255" width="12.8" height="12.8"/>
	<rect x="193.6" y="292.8" width="12.8" height="12.8"/>
	<rect x="206.4" y="280" width="12.8" height="12.8"/>
	<polygon points="219.3,330.3 219.3,318.4 229.5,318.4 229.5,305.6 206.4,305.6 206.4,330.3 	"/>
	<rect x="142.4" y="280.3" width="12.8" height="24.3"/>
	<polygon points="168,330.3 168,317.5 180.5,317.5 180.5,330.3 193.3,330.3 193.3,317.5 180.8,317.5 180.8,304.7 155.2,304.7 
		155.2,330.3 	"/>
	<rect x="116.8" y="229.4" width="25.6" height="12.8"/>
	<rect x="78.3" y="242.2" width="12.8" height="25.6"/>
</g>
<g>
	<path class="st1" d="M67.8,143.2h182.9c6.2,0,11.3,5,11.3,11.3v182.9c0,6.2-5,11.3-11.3,11.3H67.8c-6.2,0-11.3-5-11.3-11.3V154.4
		C56.5,148.2,61.6,143.2,67.8,143.2z"/>
</g>
<g>
</g>
</svg>
