<?xml version="1.0" encoding="utf-8"?>
<!-- Generator: Adobe Illustrator 24.1.2, SVG Export Plug-In . SVG Version: 6.00 Build 0)  -->
<svg version="1.1" id="Layer_1" xmlns="http://www.w3.org/2000/svg" xmlns:xlink="http://www.w3.org/1999/xlink" x="0px" y="0px"
	 viewBox="0 0 320 418" style="enable-background:new 0 0 320 418;" xml:space="preserve">
<style type="text/css">
	.st0{fill:#E5E7EF;}
</style>
<path d="M310.5,0.1H10C1.8,2.2-0.3,4.9-0.4,13.7c0,0.7,0,1.3,0,2V401c0,1,0,2,0,3C0,414.5,3.6,418,14,418h292.5
	c9.8,0,12.1-1.9,14.1-11.4V10.1C319.5,4.3,316.5,0.7,310.5,0.1z M307.7,399.5c0,4.1-0.9,5.1-5.1,5.1c-94.9-0.1-189.7-0.1-284.6,0
	c-4.1,0-5.1-1-5.1-5.1C13,336,13,272.3,12.9,208.8S12.9,81.6,12.9,18c0-4.1,0.9-5.1,5.1-5.1c94.9,0.1,189.7,0.1,284.6,0
	c4.1,0,5.1,0.9,5.1,5.1C307.5,145.2,307.5,272.3,307.7,399.5L307.7,399.5z"/>
<g>
	<path class="st0" d="M38,22.8h243.3c8.3,0,15.1,6.7,15.1,15.1v243.3c0,8.3-6.7,15.1-15.1,15.1H38c-8.3,0-15.1-6.7-15.1-15.1V37.8
		C22.9,29.5,29.7,22.8,38,22.8z"/>
</g>
<g>
</g>
</svg>
