<?xml version="1.0" encoding="utf-8"?>
<!-- Generator: Adobe Illustrator 24.1.2, SVG Export Plug-In . SVG Version: 6.00 Build 0)  -->
<svg version="1.1" id="TEXTO" xmlns="http://www.w3.org/2000/svg" xmlns:xlink="http://www.w3.org/1999/xlink" x="0px" y="0px"
	 viewBox="0 0 320 418" style="enable-background:new 0 0 320 418;" xml:space="preserve">
<style type="text/css">
	.st0{fill:#E5E7EF;}
</style>
<path d="M11,312.3h271.2c2.5,0,4.6,2,4.6,4.6v0.9c0,2.5-2,4.6-4.6,4.6H11c-2.5,0-4.6-2-4.6-4.6v-0.9C6.4,314.3,8.5,312.3,11,312.3z"
	/>
<path d="M250.3,352.7H42.9c-17.1,0-30.9-13.8-30.9-30.9l0,0h269.2l0,0C281.2,338.9,267.4,352.7,250.3,352.7z"/>
<path d="M216.9,327.3H76.3c-26.2,0-47.4-21.3-47.4-47.4V97.2c0-4.6,3.7-8.3,8.3-8.3H256c4.6,0,8.3,3.7,8.3,8.3v35.7
	c28,2.6,50,26.1,50,54.8s-22,52.2-50,54.8v37.4C264.3,306,243,327.3,216.9,327.3L216.9,327.3z M39,99v180.9
	c0,20.6,16.8,37.3,37.3,37.3h140.5c20.6,0,37.3-16.8,37.3-37.3v-47.3h5c24.8,0,44.9-20.1,44.9-44.9s-20.1-44.9-44.9-44.9h-5V99H39
	L39,99z"/>
<path d="M259.2,217.3h-5V158h5c16.3,0,29.6,13.3,29.6,29.6S275.5,217.3,259.2,217.3L259.2,217.3z M264.3,168.8v37.8
	c8.3-2.2,14.5-9.8,14.5-18.9S272.6,171,264.3,168.8L264.3,168.8z"/>
<g>
	<path d="M101.1,75.8c-1,0-2-0.3-2.9-0.9c-2.2-1.6-2.8-4.8-1.2-7c2.2-3.1,5.7-9.3,5.7-13.1c0-5.6-1.4-8.1-3-11
		c-1.7-3.1-3.6-6.5-3.6-12.5c0-12.2,8.2-18.9,8.5-19.1l6.3,7.9l0,0c-0.2,0.2-4.8,4.1-4.8,11.3c0,3.3,0.9,5,2.3,7.6
		c1.9,3.4,4.3,7.7,4.3,15.9s-6.8,17.9-7.6,19C104.2,75,102.6,75.8,101.1,75.8L101.1,75.8z"/>
	<path d="M143.3,75.8c-1,0-2-0.3-2.9-0.9c-2.2-1.6-2.8-4.8-1.2-7c2.2-3.1,5.7-9.3,5.7-13.1c0-5.6-1.4-8.1-3-11
		c-1.7-3.1-3.6-6.5-3.6-12.5c0-12.2,8.2-18.9,8.5-19.1L153,20l0,0c-0.2,0.2-4.8,4.1-4.8,11.3c0,3.3,0.9,5,2.4,7.6
		c1.9,3.4,4.3,7.7,4.3,15.9s-6.8,17.9-7.6,19C146.4,75,144.8,75.8,143.3,75.8L143.3,75.8z"/>
	<path d="M185.5,75.8c-1,0-2-0.3-2.9-0.9c-2.2-1.6-2.8-4.8-1.2-7c2.2-3.1,5.7-9.3,5.7-13.1c0-5.6-1.4-8.1-3-11
		c-1.7-3.1-3.6-6.5-3.6-12.5c0-12.2,8.2-18.9,8.5-19.1l6.3,7.9l0,0c-0.2,0.2-4.8,4.1-4.8,11.3c0,3.3,0.9,5,2.3,7.6
		c1.9,3.4,4.3,7.7,4.3,15.9s-6.8,17.9-7.6,19C188.6,75,187,75.8,185.5,75.8L185.5,75.8z"/>
</g>
<g>
	<path class="st0" d="M68.5,114.8H226c5.4,0,9.8,4.3,9.8,9.8V282c0,5.4-4.3,9.8-9.8,9.8H68.5c-5.4,0-9.8-4.3-9.8-9.8V124.5
		C58.7,119.1,63.1,114.8,68.5,114.8z"/>
</g>
<g>
</g>
</svg>
