<?xml version="1.0" encoding="utf-8"?>
<!-- Generator: Adobe Illustrator 24.1.2, SVG Export Plug-In . SVG Version: 6.00 Build 0)  -->
<svg version="1.1" id="TEXTO" xmlns="http://www.w3.org/2000/svg" xmlns:xlink="http://www.w3.org/1999/xlink" x="0px" y="0px"
	 viewBox="0 0 320 418" style="enable-background:new 0 0 320 418;" xml:space="preserve">
<style type="text/css">
	.st0{fill:#E5E7EF;}
	.st1{fill:#FFFFFF;}
</style>
<path d="M266.1,149.5v-49.4H143.3c0,0,0,0.1-0.1,0.1c-2.1,3.8-4.7,6.9-8,9.7h121.1v39.6L266.1,149.5L266.1,149.5z"/>
<polygon points="256.3,340 256.3,291.9 266.1,291.9 266.1,340 "/>
<path d="M50.4,325.6V109.9h36c-1.6-2.2-3.3-4.3-4.7-6.6c-0.7-1.1-1.3-2.2-1.8-3.2H40.6v225.5H50.4z"/>
<path d="M249.2,381.8H57.4c-9.3,0-16.9-7.6-16.9-16.9V317h225.5v47.9C266.1,374.3,258.5,381.8,249.2,381.8z"/>
<g>
	<path d="M26.4,249.6c-9.5,0-23-8.5-23-27.6c0-13,7.1-26.9,12.9-38.1c2.2-4.3,4.3-8.4,5.5-11.5c1.3-3.3-0.3-9.4-2.1-16.3
		c-2.9-11.3-7-26.8-3.2-45.9c3.3-16.7,12-29.2,25.8-37c10.5-6,21.1-7.6,26-8.2c0.2-0.2,0.3-0.4,0.5-0.6c4.1-4.5,13.8-15.2,26.7-24.7
		c16.4-12.2,32.4-18.4,47.4-18.4c15.8,0,31,5,43.8,14.6c9.7,7.2,14.7,14.5,14.9,14.8c1.5,2.3,0.9,5.3-1.3,6.8
		c-2.2,1.5-5.3,0.9-6.8-1.3c0-0.1-4.4-6.4-12.9-12.7c-11.2-8.2-23.8-12.4-37.6-12.4c-20.3,0-42.8,13.4-66.8,39.9
		c-0.9,1-1.5,1.6-1.9,2.1c-0.8,0.8-1.7,1.2-2.7,1.4c-0.4,0.1-0.8,0.1-1.4,0.2c-24.9,3.4-39.8,16-44,37.5
		c-3.3,16.9,0.2,30.6,3.1,41.5c2.3,8.9,4.2,16,1.8,22.3c-1.4,3.6-3.6,7.9-6,12.5c-5.3,10.2-11.8,23-11.8,33.6
		c0,13.4,8.9,17.8,13.1,17.8c6.4,0,11.2-3.7,14-11c1-2.5,3.8-3.8,6.3-2.8s3.8,3.8,2.8,6.3C47.1,238.4,43.6,243,39,246
		C35.3,248.4,31,249.6,26.4,249.6L26.4,249.6z"/>
	<path d="M110.1,124.8c-10.2,0-19.4-4.1-26.7-11.9c-5.4-5.8-7.9-11.6-8-11.8c-1-2.5,0.1-5.4,2.6-6.4c2.5-1,5.4,0.1,6.4,2.6
		c0,0,2,4.7,6.3,9.2c5.5,5.7,12,8.6,19.4,8.6c18.4,0,25.5-12.5,25.6-12.6c0.9-1.5,2.5-2.5,4.3-2.5h111.3c2-6.6,2.1-13.6,0.1-20.3
		c-2.6-9.3-8.7-16.9-17.2-21.6c-8.4-4.7-18.1-5.8-27.4-3.1c-5.8,1.7-11.1,4.7-15.3,8.9c-1.9,1.9-5,1.9-6.9-0.1s-1.9-5,0.1-6.9
		c5.4-5.3,12.2-9.3,19.5-11.3c11.8-3.4,24.2-2,34.9,4c10.7,6,18.5,15.7,21.8,27.5c2.8,9.9,2.3,20.2-1.5,29.7
		c-0.8,1.9-2.6,3.1-4.5,3.1H142.6C138.9,114.6,128.8,124.8,110.1,124.8L110.1,124.8z"/>
</g>
<path d="M100.9,73.2c-0.7,0-1.4-0.3-2-0.8c-1.2-1.1-1.2-3-0.2-4.2c10.9-11.7,27.8-25.6,46.3-25.1c5.4,0.1,10.8,1.1,15.8,3
	c1.5,0.6,2.3,2.3,1.8,3.8c-0.6,1.5-2.3,2.3-3.8,1.8c-4.5-1.6-9.2-2.6-14-2.6c-16.3-0.5-31.8,12.4-41.8,23.2
	C102.5,72.9,101.7,73.2,100.9,73.2L100.9,73.2z"/>
<path d="M292.1,301.7h-30.7v-9.8h30.7c8,0,14.6-6.5,14.6-14.6V164.1c0-8-6.5-14.6-14.6-14.6h-30.7v-9.8h30.7
	c13.4,0,24.4,11,24.4,24.4v113.2C316.5,290.8,305.5,301.7,292.1,301.7z"/>
<path d="M285.8,275.3h-29.4V166.1h29.4c4.7,0,8.5,3.8,8.5,8.5v92.2C294.4,271.5,290.5,275.3,285.8,275.3z M266.3,265.5h18.3v-89.6
	h-18.3V265.5z"/>
<g>
	<path class="st0" d="M77.3,130.3h152.3c5.2,0,9.4,4.2,9.4,9.4V292c0,5.2-4.2,9.4-9.4,9.4H77.3c-5.2,0-9.4-4.2-9.4-9.4V139.7
		C67.8,134.5,72.1,130.3,77.3,130.3z"/>
</g>
<g>
</g>
</svg>
