<?xml version="1.0" encoding="utf-8"?>
<!-- Generator: Adobe Illustrator 24.1.2, SVG Export Plug-In . SVG Version: 6.00 Build 0)  -->
<svg version="1.1" id="Layer_1" xmlns="http://www.w3.org/2000/svg" xmlns:xlink="http://www.w3.org/1999/xlink" x="0px" y="0px"
	 viewBox="0 0 321.4 418.3" style="enable-background:new 0 0 321.4 418.3;" xml:space="preserve">
<style type="text/css">
	.st0{fill:#E5E7EF;}
	.st1{fill:#FFFFFF;}
</style>
<path d="M321.8,18.9v379.9c-0.7,0.7-1.6,1.2-2.5,1.5c-7.9,1.9-12.9,6.7-14.7,14.5c-0.8,3.5-3.4,3.4-6.2,3.4c-31.4,0-62.7,0-94.1,0
	c-59.7,0-119.5,0-179.3,0.1c-4.1,0-6.3-1-7.4-5.2c-1.3-6-6-10.8-12.1-12.1c-4.2-1.1-5.2-3.3-5.2-7.4c0.1-123.1,0.1-246.1,0-369.2
	c0-4.2,0.9-6.7,5.3-7.8c6.3-1.6,10.2-5.9,12-12.2c0.3-1.6,1.1-3.2,2.1-4.5h283c0.2,0.3,0.5,0.5,0.6,0.8c1.9,9.8,7.8,15.7,17.6,17.6
	C321.3,18.4,321.6,18.7,321.8,18.9z"/>
<g>
	<path class="st0" d="M38.4,22.8h243.3c8.3,0,15.1,6.7,15.1,15.1v243.3c0,8.3-6.7,15.1-15.1,15.1H38.4c-8.3,0-15.1-6.7-15.1-15.1
		V37.8C23.3,29.5,30.1,22.8,38.4,22.8z"/>
</g>
<g>
</g>
</svg>
