<?xml version="1.0" encoding="utf-8"?>
<!-- Generator: Adobe Illustrator 24.1.2, SVG Export Plug-In . SVG Version: 6.00 Build 0)  -->
<svg version="1.1" id="Layer_1" xmlns="http://www.w3.org/2000/svg" xmlns:xlink="http://www.w3.org/1999/xlink" x="0px" y="0px"
	 viewBox="0 0 320 418" style="enable-background:new 0 0 320 418;" xml:space="preserve">
<style type="text/css">
	.st0{fill:#010101;}
	.st1{fill:#616161;}
	.st2{fill:#E5E7EF;}
</style>
<path class="st0" d="M319.9,13.7c0-8.8-2.1-11.5-10.4-13.6H9.4c-6.1,0.6-9,4.2-9.9,10v396.4c1.9,9.5,4.3,11.4,14.1,11.4h291.6
	c11.2,0,14.8-3.5,14.9-14.9C319.9,273.3,319.9,143.4,319.9,13.7z M312.9,403.5c0.1,1,0,2-0.4,2.9c-0.8,3-3,4.2-5.9,4.3
	c-1.5,0.1-3,0.1-4.5,0.1c-95.2,0-190.4,0-285.5,0c-4,0-8.6,1-10.4-4.4c-0.4-0.9-0.5-1.9-0.4-2.9c0-27.7,0-55.3,0-83
	c-0.1-1,0-2,0.3-2.9c2.9-2.2,6.4-1.5,9.6-1.5c77.3,0,154.6,0,231.9,0c19,0,38.1,0,57.1,0c2.6,0,5.3-0.4,7.7,1.4
	c0.7,1,0.5,2.3,0.5,3.4C312.9,348.5,312.9,376,312.9,403.5z M312.5,311c-1.8,1.6-4,1.3-6.1,1.3c-98,0-196,0-293.9,0
	c-6.5,0-6.6-0.2-6.6-6.7c0-96.6,0-193.1,0-289.6c0-1.6-0.3-3.3,0.4-4.9c0.5-3,2.7-4,5.3-4.3c1.7-0.2,3.3-0.2,5-0.2
	c95.2,0,190.4,0,285.5,0c4,0,8.5-0.9,10.4,4.4c0.7,1.6,0.4,3.3,0.4,4.9c0,96.7,0,193.4,0,290.1C312.9,307.7,313.1,309.3,312.5,311
	L312.5,311z"/>
<path class="st1" d="M6.3,317.8l-0.1,88.6c-1.4-1.5-1-3.4-1-5.2c0-128.4,0-256.7,0-385.1c0-1.8-0.4-3.7,1-5.2
	c0,98.4,0,196.8-0.1,295.2c0,3.7,0.7,5.1,4.8,5c99.3-0.1,198.7-0.2,298-0.1c1.1,0,2.3-0.1,3.5-0.2c0.2,0.7-0.1,1.3-0.8,1.6
	c-3,1.3-6.2,0.9-9.3,0.9c-95.3,0-190.7,0-286,0C12.4,313.5,8.4,313.3,6.3,317.8z"/>
<path d="M315.9,312l0.1,5.8H3.2c-0.9-4.8,1-6,5.9-6C111.3,312,213.6,312.2,315.9,312z"/>
<g>
	<path class="st2" d="M38.2,21.8h243.3c8.3,0,15.1,6.7,15.1,15.1v243.3c0,8.3-6.7,15.1-15.1,15.1H38.2c-8.3,0-15.1-6.7-15.1-15.1
		V36.8C23.1,28.5,29.9,21.8,38.2,21.8z"/>
</g>
<g>
</g>
</svg>
