<?xml version="1.0" encoding="utf-8"?>
<!-- Generator: Adobe Illustrator 24.1.2, SVG Export Plug-In . SVG Version: 6.00 Build 0)  -->
<svg version="1.1" id="TEXTO" xmlns="http://www.w3.org/2000/svg" xmlns:xlink="http://www.w3.org/1999/xlink" x="0px" y="0px"
	 viewBox="0 0 320 418" style="enable-background:new 0 0 320 418;" xml:space="preserve">
<style type="text/css">
	.st0{fill:#E5E7EF;}
	.st1{fill:#FFFFFF;}
</style>
<path d="M304,13.6v288.8H15.2V13.6H304 M305.7,0H13.5C6.9,0,1.6,5.3,1.6,11.9v292.2c0,6.6,5.3,11.9,11.9,11.9h292.2
	c6.6,0,11.9-5.3,11.9-11.9V11.9C317.5,5.3,312.2,0,305.7,0L305.7,0z"/>
<path d="M306.6,344.2H177.7l-8.1-10.7l-9.1-12l-9.1,12l-8.1,10.7H14c-6.6,0-11.9,5.3-11.9,11.9v50c0,6.6,5.3,11.9,11.9,11.9h292.6
	c6.6,0,11.9-5.3,11.9-11.9v-50C318.5,349.5,313.2,344.2,306.6,344.2z"/>
<g>
	<path class="st0" d="M37.6,20.5h243.3c8.3,0,15.1,6.7,15.1,15.1v243.3c0,8.3-6.7,15.1-15.1,15.1H37.6c-8.3,0-15.1-6.7-15.1-15.1
		V35.5C22.5,27.2,29.3,20.5,37.6,20.5z"/>
</g>
<g>
</g>
</svg>
