<?xml version="1.0" encoding="utf-8"?>
<!-- Generator: Adobe Illustrator 24.1.2, SVG Export Plug-In . SVG Version: 6.00 Build 0)  -->
<svg version="1.1" id="TEXTO" xmlns="http://www.w3.org/2000/svg" xmlns:xlink="http://www.w3.org/1999/xlink" x="0px" y="0px"
	 viewBox="0 0 320 418" style="enable-background:new 0 0 320 418;" xml:space="preserve">
<style type="text/css">
	.st0{fill:#E5E7EF;}
	.st1{fill:#FFFFFF;}
</style>
<path d="M303.5,116.3V403H16.9V116.3H303.5 M305.2,102.8h-290c-6.5,0-11.8,5.3-11.8,11.8v290c0,6.5,5.3,11.8,11.8,11.8h290
	c6.5,0,11.8-5.3,11.8-11.8v-290C317,108.1,311.7,102.8,305.2,102.8L305.2,102.8z"/>
<g>
	<path d="M14.8,1.6h290.5c6.5,0,11.8,5.3,11.8,11.8v49.7c0,6.5-5.3,11.8-11.8,11.8H14.8C8.3,74.9,3,69.6,3,63.1V13.4
		C3,6.9,8.3,1.6,14.8,1.6z"/>
	<polygon points="277.6,73.9 259.6,73.9 241.6,73.9 250.6,85.8 259.6,97.7 268.6,85.8 	"/>
</g>
<g>
	<path class="st0" d="M37.8,122.9h243.3c8.3,0,15.1,6.7,15.1,15.1v243.3c0,8.3-6.7,15.1-15.1,15.1H37.8c-8.3,0-15.1-6.7-15.1-15.1
		V137.9C22.7,129.6,29.5,122.9,37.8,122.9z"/>
</g>
<g>
</g>
</svg>
