<?xml version="1.0" encoding="utf-8"?>
<!-- Generator: Adobe Illustrator 24.1.2, SVG Export Plug-In . SVG Version: 6.00 Build 0)  -->
<svg version="1.1" id="TEXTO" xmlns="http://www.w3.org/2000/svg" xmlns:xlink="http://www.w3.org/1999/xlink" x="0px" y="0px"
	 viewBox="0 0 320 418" style="enable-background:new 0 0 320 418;" xml:space="preserve">
<style type="text/css">
	.st0{fill:#E5E7EF;}
	.st1{fill:#FFFFFF;}
</style>
<g>
	<path d="M240.9,59l17.7-13.1H153.4c0.6,1.2,0.2,2.7-0.9,3.6L139.5,59H240.9L240.9,59z"/>
	<path d="M250.8,59h26.8v72.9l13.1-9.6V59c0-7.2-5.8-13.1-13.1-13.1h-9L250.8,59z"/>
	<path d="M42.6,94.1V59h87l17.7-13.1h-20.2L111,57.9c-0.5,0.4-1.1,0.6-1.7,0.6c-0.9,0-1.8-0.4-2.4-1.2c-1-1.3-0.7-3.1,0.6-4.1
		l9.7-7.2H61.7L56,50.2c-0.5,0.4-1.1,0.6-1.7,0.6c-0.9,0-1.8-0.4-2.4-1.2C51,48.5,51.1,47,52,45.9h-9.4c-7.2,0-13.1,5.8-13.1,13.1
		v44.7L42.6,94.1L42.6,94.1z"/>
	<path d="M286.5,350.1c-0.5,0.4-1.1,0.6-1.7,0.6c-0.9,0-1.8-0.4-2.4-1.2c-1-1.3-0.7-3.1,0.6-4.1l7.6-5.6V294l0,0v-35l-5.6,4.1
		c-0.5,0.4-1.1,0.6-1.7,0.6c-0.9,0-1.8-0.4-2.4-1.2c-1-1.3-0.7-3.1,0.6-4.1l9.1-6.7v-15.6l-3.6,2.6c-0.5,0.4-1.1,0.6-1.7,0.6
		c-0.9,0-1.8-0.4-2.4-1.2c-1-1.3-0.7-3.1,0.6-4.1l7-5.2v-76.1l-0.6,0.4c-0.5,0.4-1.1,0.6-1.7,0.6c-0.9,0-1.8-0.4-2.4-1.2
		c-1-1.3-0.7-3.1,0.6-4.1l4-3v-15.8l-13.1,9.6V294H42.6V101.4L29.5,111v14.8l6-4.4c1.3-1,3.1-0.7,4.1,0.6c1,1.3,0.7,3.1-0.6,4.1
		l-9.5,7v77.4l7.2-5.3c1.3-1,3.1-0.7,4.1,0.6c0.9,1.3,0.7,3.1-0.6,4.1l-10.7,7.9v13.3l4.1-3c1.3-1,3.1-0.7,4.1,0.6
		c0.9,1.3,0.7,3.1-0.6,4.1l-7.6,5.6v81.1l3.6-2.6c1.3-1,3.1-0.7,4.1,0.6c1,1.3,0.7,3.1-0.6,4.1l-7.1,5.2v42.9
		c0,7.2,5.8,13.1,13.1,13.1h6.7l14.1-10.4c1.3-0.9,3.1-0.7,4.1,0.6c1,1.3,0.7,3.1-0.6,4.1l-7.7,5.6h100.4l8.6-6.3
		c1.3-0.9,3.1-0.7,4.1,0.6c1,1.3,0.7,3.1-0.6,4.1l-2.2,1.6h89.1l12.7-9.4c1.3-0.9,3.1-0.7,4.1,0.6c1,1.3,0.7,3.1-0.6,4.1l-6.3,4.7h9
		c7.2,0,13.1-5.8,13.1-13.1v-22.7L286.5,350.1L286.5,350.1z"/>
</g>
<g>
	<path d="M11.8,118.9c-0.9,0-1.8-0.4-2.4-1.2c-1-1.3-0.7-3.1,0.6-4.1l35.5-26.1c1.3-1,3.1-0.7,4.1,0.6c0.9,1.3,0.7,3.1-0.6,4.1
		l-35.5,26.1C13,118.8,12.4,119,11.8,118.9L11.8,118.9z"/>
	<path d="M2.3,232.7c-0.9,0-1.8-0.4-2.4-1.2c-0.9-1.3-0.7-3.1,0.6-4.1L36,201.2c1.3-1,3.1-0.7,4.1,0.6s0.7,3.1-0.6,4.1L4,232.1
		C3.5,232.5,2.9,232.7,2.3,232.7L2.3,232.7z"/>
	<path d="M28.9,399.9c-0.9,0-1.8-0.4-2.4-1.2c-0.9-1.3-0.7-3.1,0.6-4.1l35.5-26.1c1.3-0.9,3.1-0.7,4.1,0.6c0.9,1.3,0.7,3.1-0.6,4.1
		l-35.5,26.1C30.1,399.7,29.5,399.9,28.9,399.9L28.9,399.9z"/>
	<path d="M282.5,259.8c-0.9,0-1.8-0.4-2.4-1.2c-1-1.3-0.7-3.1,0.6-4.1l35.5-26.1c1.3-1,3.1-0.7,4.1,0.6s0.7,3.1-0.6,4.1l-35.5,26.1
		C283.7,259.6,283.1,259.8,282.5,259.8L282.5,259.8z"/>
	<path d="M133.7,403.9c-0.9,0-1.8-0.4-2.4-1.2c-1-1.3-0.7-3.1,0.6-4.1l35.5-26.1c1.3-0.9,3.1-0.7,4.1,0.6c1,1.3,0.7,3.1-0.6,4.1
		l-35.5,26.1C134.9,403.8,134.3,404,133.7,403.9L133.7,403.9z"/>
	<path d="M268.4,140.8c-0.9,0-1.8-0.4-2.4-1.2c-1-1.3-0.7-3.1,0.6-4.1l32.3-23.8c1.3-1,3.1-0.7,4.1,0.6s0.7,3.1-0.6,4.1l-32.3,23.8
		C269.6,140.6,269,140.8,268.4,140.8L268.4,140.8z"/>
	<path d="M287.6,149.7c-0.9,0-1.8-0.4-2.4-1.2c-1-1.3-0.7-3.1,0.6-4.1l24.2-17.8c1.3-1,3.1-0.7,4.1,0.6c1,1.3,0.7,3.1-0.6,4.1
		l-24.2,17.8C288.8,149.5,288.2,149.7,287.6,149.7L287.6,149.7z"/>
	<path d="M20.7,239.8c-0.9,0-1.8-0.4-2.4-1.2c-1-1.3-0.7-3.1,0.6-4.1l13.9-10.2c1.3-1,3.1-0.7,4.1,0.6c0.9,1.3,0.7,3.1-0.6,4.1
		l-13.9,10.2C21.9,239.6,21.3,239.8,20.7,239.8L20.7,239.8z"/>
	<path d="M11.9,395.7c-0.9,0-1.8-0.4-2.4-1.2c-1-1.3-0.7-3.1,0.6-4.1L24,380.2c1.3-0.9,3.1-0.7,4.1,0.6c0.9,1.3,0.7,3.1-0.6,4.1
		l-13.9,10.2C13.1,395.6,12.5,395.7,11.9,395.7L11.9,395.7z"/>
	<path d="M108.5,54.5c-0.9,0-1.8-0.4-2.4-1.2c-1-1.3-0.7-3.1,0.6-4.1l35.5-26.1c1.3-1,3.1-0.7,4.1,0.6c1,1.3,0.7,3.1-0.6,4.1
		l-35.5,26.1C109.7,54.3,109.1,54.5,108.5,54.5L108.5,54.5z"/>
	<path d="M24.1,131.9c-0.9,0-1.8-0.4-2.3-1.2c-1-1.3-0.7-3.1,0.6-4.1l12.4-9.2c1.3-1,3.1-0.7,4.1,0.6s0.7,3.1-0.6,4.1l-12.4,9.2
		C25.3,131.7,24.7,131.9,24.1,131.9L24.1,131.9z"/>
	<path d="M244.4,395.3c-0.9,0-1.8-0.4-2.4-1.2c-1-1.3-0.7-3.1,0.6-4.1l27.9-20.6c1.3-0.9,3.1-0.7,4.1,0.6c1,1.3,0.7,3.1-0.6,4.1
		l-27.9,20.6C245.6,395.2,245,395.4,244.4,395.3L244.4,395.3z"/>
	<path d="M129.7,61.1c-0.9,0-1.8-0.4-2.4-1.2c-1-1.3-0.7-3.1,0.6-4.1l20.2-14.9c1.3-0.9,3.1-0.7,4.1,0.6c1,1.3,0.7,3.1-0.6,4.1
		l-20.2,14.9C131,60.9,130.3,61.1,129.7,61.1L129.7,61.1z"/>
	<path d="M247.5,33.8c-0.9,0-1.8-0.4-2.4-1.2c-1-1.3-0.7-3.1,0.6-4.1l20.2-14.9c1.3-1,3.1-0.7,4.1,0.6s0.7,3.1-0.6,4.1l-20.2,14.9
		C248.7,33.6,248.1,33.8,247.5,33.8L247.5,33.8z"/>
	<path d="M53.5,46.9c-0.9,0-1.8-0.4-2.4-1.2c-0.9-1.3-0.7-3.1,0.6-4.1l20.2-14.9c1.3-0.9,3.1-0.7,4.1,0.6c0.9,1.3,0.7,3.1-0.6,4.1
		L55.2,46.3C54.7,46.7,54.1,46.9,53.5,46.9L53.5,46.9z"/>
	<path d="M284,346.7c-0.9,0-1.8-0.4-2.4-1.2c-1-1.3-0.7-3.1,0.6-4.1l30.9-22.8c1.3-1,3.1-0.7,4.1,0.6c1,1.3,0.7,3.1-0.6,4.1
		l-30.9,22.8C285.2,346.5,284.6,346.7,284,346.7L284,346.7z"/>
	<path d="M238.3,63c-0.9,0-1.8-0.4-2.4-1.2c-1-1.3-0.7-3.1,0.6-4.1l29.4-21.6c1.3-0.9,3.1-0.7,4.1,0.6s0.7,3.1-0.6,4.1L240,62.5
		C239.5,62.9,238.9,63,238.3,63L238.3,63z"/>
	<path d="M166.8,33.8c-0.9,0-1.8-0.4-2.4-1.2c-1-1.3-0.7-3.1,0.6-4.1l6.8-5c1.3-1,3.1-0.7,4.1,0.6c1,1.3,0.7,3.1-0.6,4.1l-6.8,5
		C168,33.6,167.4,33.8,166.8,33.8L166.8,33.8z"/>
	<path d="M284.6,235.3c-0.9,0-1.8-0.4-2.4-1.2c-1-1.3-0.7-3.1,0.6-4.1l13.8-10.2c1.3-1,3.1-0.7,4.1,0.6s0.7,3.1-0.6,4.1l-13.8,10.2
		C285.8,235.2,285.2,235.3,284.6,235.3L284.6,235.3z"/>
	<path d="M20.3,328.5c-0.9,0-1.8-0.4-2.4-1.2c-1-1.3-0.7-3.1,0.6-4.1l13.8-10.2c1.3-1,3.1-0.7,4.1,0.6c1,1.3,0.7,3.1-0.6,4.1
		L22,327.9C21.5,328.3,20.9,328.5,20.3,328.5L20.3,328.5z"/>
	<path d="M165.5,402.7c-0.9,0-1.8-0.4-2.4-1.2c-1-1.3-0.7-3.1,0.6-4.1l6.8-5c1.3-0.9,3.1-0.7,4.1,0.6c1,1.3,0.7,3.1-0.6,4.1l-6.8,5
		C166.8,402.5,166.2,402.7,165.5,402.7L165.5,402.7z"/>
</g>
<g>
	<path class="st0" d="M70.8,77.9h176.8c6,0,11,4.9,11,11v176.8c0,6-4.9,11-11,11H70.8c-6,0-11-4.9-11-11V88.8
		C59.9,82.8,64.8,77.9,70.8,77.9z"/>
</g>
<g>
</g>
</svg>
