<?xml version="1.0" encoding="utf-8"?>
<!-- Generator: Adobe Illustrator 24.1.2, SVG Export Plug-In . SVG Version: 6.00 Build 0)  -->
<svg version="1.1" id="Layer_1" xmlns="http://www.w3.org/2000/svg" xmlns:xlink="http://www.w3.org/1999/xlink" x="0px" y="0px"
	 viewBox="0 0 320 418" style="enable-background:new 0 0 320 418;" xml:space="preserve">
<style type="text/css">
	.st0{fill:#050505;}
	.st1{fill:#0B0B0B;}
	.st2{fill:#E5E7EF;}
	.st3{fill:#FFFFFF;}
</style>
<path d="M306.1,332.3c-1.3-0.1-2.6,0-4,0H18.2c-2.5-0.1-5,0-7.4,0.4c-6.7,1.3-10,4.9-10.9,11.7c-0.7,5.6-0.3,11.3-0.3,16.9
	c-0.1,14.1-0.1,28.2,0,42.3C-0.3,414,3.4,418,13,418c98,0,196,0,293.9,0c9,0,11.3-1.9,13.6-10.4v-63.8
	C318.3,335.5,314.9,332.7,306.1,332.3z M69.2,385c0,3.5-1.8,5-5.3,4.9c-4.6-0.2-9.3,0-13.9,0s-9.3-0.1-13.9,0
	c-3.5,0.1-5.2-1.4-5.2-5c0.1-5.8,0.1-11.6,0-17.4c0-3.2,1.3-5.1,4.6-5.1c9.8-0.1,19.5-0.1,29.3,0c2.9,0,4.5,1.7,4.5,4.8
	C69.2,373,69.2,379,69.2,385z"/>
<path d="M310.5,0.1H10C1.8,2.2-0.3,4.9-0.4,13.7c0,0.5,0,1,0,1.5v290.7c0,1,0,2,0,3c0.5,8.6,4.8,13,13.4,13.5c2.3,0.1,4.6,0.1,7,0.1
	h199.9c28.5,0,57,0.1,85.5,0c9.7,0,12.8-2.6,15.1-11.5V10.1C319.6,4.3,316.6,0.7,310.5,0.1z M302.5,308.5
	c-47.6-0.2-95.2-0.1-142.8-0.1c-47.3,0-94.5-0.1-141.8,0.1c-4.2,0-5.1-1-5.1-5.1c0.1-95.1,0.1-190.3,0-285.4c0-4.2,1-5.1,5.1-5.1
	c94.8,0.1,189.7,0.1,284.5,0c4.1,0,5.1,1,5.1,5.1c-0.1,95.1-0.1,190.3,0,285.4C307.6,307.5,306.7,308.5,302.5,308.5z"/>
<path class="st0" d="M45.2,369.5l11.3,6.5l-11.3,6.5V369.5z"/>
<path class="st1" d="M245.4,375.8c-1.7,1-3.5,0.9-5.9,0.4C241.6,374,243.4,374.5,245.4,375.8z"/>
<g>
	<path class="st2" d="M38.4,23.3h243.3c8.3,0,15.1,6.7,15.1,15.1v243.3c0,8.3-6.7,15.1-15.1,15.1H38.4c-8.3,0-15.1-6.7-15.1-15.1
		V38.3C23.3,30,30.1,23.3,38.4,23.3z"/>
</g>
<g>
</g>
</svg>
