<?xml version="1.0" encoding="utf-8"?>
<!-- Generator: Adobe Illustrator 24.1.2, SVG Export Plug-In . SVG Version: 6.00 Build 0)  -->
<svg version="1.1" id="Layer_1" xmlns="http://www.w3.org/2000/svg" xmlns:xlink="http://www.w3.org/1999/xlink" x="0px" y="0px"
	 viewBox="0 0 320 418" style="enable-background:new 0 0 320 418;" xml:space="preserve">
<style type="text/css">
	.st0{fill:#FEFEFE;}
	.st1{fill:#010101;}
	.st2{fill:#E5E7EF;}
</style>
<path d="M160.1,371.8c-8,0.1-14.5,6.6-14.7,14.6c-0.1,8.1,6.5,14.7,14.7,14.8c8.1,0.1,14.7-6.5,14.8-14.7
	C174.9,378.5,168.1,371.7,160.1,371.8z M160.1,398.9c-6.9-0.1-12.4-5.8-12.3-12.7c0.1-6.9,5.8-12.4,12.7-12.3
	c6.8,0.1,12.3,5.7,12.3,12.5C172.7,393.3,167,398.9,160.1,398.9L160.1,398.9z M160.1,371.8c-8,0.1-14.5,6.6-14.7,14.6
	c-0.1,8.1,6.5,14.7,14.7,14.8c8.1,0.1,14.7-6.5,14.8-14.7C174.9,378.5,168.1,371.7,160.1,371.8z M160.1,398.9
	c-6.9-0.1-12.4-5.8-12.3-12.7c0.1-6.9,5.8-12.4,12.7-12.3c6.8,0.1,12.3,5.7,12.3,12.5C172.7,393.3,167,398.9,160.1,398.9
	L160.1,398.9z M288.8,2.7c-1.6-1.6-3.6-2.4-5.7-2.7H37.1c-1.6,0.5-3.3,0.5-4.8,1.6c-3,2.4-4,5.6-4,9.3c0.1,132.1,0.1,264.1,0,396.1
	c0,0.5,0,1.1,0,1.6c0.1,2.8,1.3,5.5,3.5,7.3c1.4,1.3,3.1,1.4,4.8,2H283c2.4-0.3,4.5-1.4,6.2-3.1c1.4-1.5,1.9-3.2,2.4-5V8.6
	C291.4,6.3,290.4,4.3,288.8,2.7z M156,30.1c7.7,0.1,15.3,0,23,0.1c2.3,0,3.6,1.1,3.6,3c0.1,1.9-1.3,3.2-3.6,3.2
	c-3.9,0.1-7.8,0-11.8,0c-3.7,0-7.5,0-11.2,0c-2.2,0-3.8-1.3-3.8-3.1C152.2,31.7,153.6,30.1,156,30.1L156,30.1z M142.6,28
	c2.8-0.1,5.3,2.2,5.3,5.1c0.1,2.8-2.2,5.3-5.1,5.3c-2.8,0.1-5.3-2.2-5.3-5.1c0,0,0,0,0-0.1C137.5,30.4,139.7,28.1,142.6,28
	C142.6,28,142.6,28,142.6,28L142.6,28z M160.1,406.6c-11.1,0.1-20.5-9.2-20.4-20.3c0.1-11.1,9.2-20.1,20.3-20.2
	c11.2-0.1,20.5,9.2,20.4,20.3C180.3,397.5,171.3,406.5,160.1,406.6L160.1,406.6z M269.5,352.7c-73-0.1-146-0.1-219,0
	C43,352.7,38.9,347,39,341c0.1-44.1,0.1-88.1,0.1-132.1s0-87.9,0-131.9c0-3.9,1.1-7.1,4.3-9.7c1.9-1.6,4.2-1.9,6.5-2.1
	c0.5-0.1,1,0,1.4,0h217.8c6.3,0,10.3,2.7,11.8,8c0.3,1.2,0.4,2.4,0.3,3.6c0,88.1,0,176.1,0.1,264.2
	C281.2,346.9,277.2,352.7,269.5,352.7L269.5,352.7z M160.1,371.8c-8,0.1-14.5,6.6-14.7,14.6c-0.1,8.1,6.5,14.7,14.7,14.8
	c8.1,0.1,14.7-6.5,14.8-14.7C174.9,378.5,168.1,371.7,160.1,371.8z M160.1,398.9c-6.9-0.1-12.4-5.8-12.3-12.7
	c0.1-6.9,5.8-12.4,12.7-12.3c6.8,0.1,12.3,5.7,12.3,12.5C172.7,393.3,167,398.9,160.1,398.9L160.1,398.9z"/>
<path class="st0" d="M160.1,371.8c-8,0.1-14.5,6.6-14.7,14.6c-0.1,8.1,6.5,14.7,14.7,14.8c8.1,0.1,14.7-6.5,14.8-14.7
	C174.9,378.5,168.1,371.7,160.1,371.8z M160.1,398.9c-6.9-0.1-12.4-5.8-12.3-12.7c0.1-6.9,5.8-12.4,12.7-12.3
	c6.8,0.1,12.3,5.7,12.3,12.5C172.7,393.3,167,398.9,160.1,398.9L160.1,398.9z"/>
<path class="st1" d="M160.1,371.8c-8,0.1-14.5,6.6-14.7,14.6c-0.1,8.1,6.5,14.7,14.7,14.8c8.1,0.1,14.7-6.5,14.8-14.7
	C174.9,378.5,168.1,371.7,160.1,371.8z M160.1,398.9c-6.9-0.1-12.4-5.8-12.3-12.7c0.1-6.9,5.8-12.4,12.7-12.3
	c6.8,0.1,12.3,5.7,12.3,12.5C172.7,393.3,167,398.9,160.1,398.9L160.1,398.9z"/>
<g>
	<path class="st2" d="M63.1,77.3h192.2c6.6,0,11.9,5.3,11.9,11.9v192.2c0,6.6-5.3,11.9-11.9,11.9H63.1c-6.6,0-11.9-5.3-11.9-11.9
		V89.1C51.2,82.6,56.6,77.3,63.1,77.3z"/>
</g>
<g>
</g>
</svg>
