<?xml version="1.0" encoding="utf-8"?>
<!-- Generator: Adobe Illustrator 24.1.2, SVG Export Plug-In . SVG Version: 6.00 Build 0)  -->
<svg version="1.1" id="Layer_1" xmlns="http://www.w3.org/2000/svg" xmlns:xlink="http://www.w3.org/1999/xlink" x="0px" y="0px"
	 viewBox="0 0 320 418" style="enable-background:new 0 0 320 418;" xml:space="preserve">
<style type="text/css">
	.st0{fill:#FEFEFE;}
	.st1{fill:#010101;}
	.st2{fill:#E5E7EF;}
</style>
<path d="M160.1,371.8c-8,0.1-14.5,6.6-14.7,14.6c-0.1,8.1,6.5,14.7,14.7,14.8c8.1,0.1,14.7-6.5,14.8-14.7
	C174.9,378.5,168.1,371.7,160.1,371.8z M160.1,398.9c-6.9-0.1-12.4-5.8-12.3-12.7c0.1-6.9,5.8-12.4,12.7-12.3
	c6.8,0.1,12.3,5.7,12.3,12.5C172.7,393.3,167,398.9,160.1,398.9L160.1,398.9z M160.1,371.8c-8,0.1-14.5,6.6-14.7,14.6
	c-0.1,8.1,6.5,14.7,14.7,14.8c8.1,0.1,14.7-6.5,14.8-14.7C174.9,378.5,168.1,371.7,160.1,371.8z M160.1,398.9
	c-6.9-0.1-12.4-5.8-12.3-12.7c0.1-6.9,5.8-12.4,12.7-12.3c6.8,0.1,12.3,5.7,12.3,12.5C172.7,393.3,167,398.9,160.1,398.9
	L160.1,398.9z M288.8,2.7c-1.6-1.6-3.6-2.4-5.7-2.7H37.1c-1.6,0.5-3.3,0.5-4.8,1.6c-3,2.4-4,5.6-4,9.3c0.1,132.1,0.1,264.1,0,396.1
	c0,0.5,0,1.1,0,1.6c0.1,2.8,1.3,5.5,3.5,7.3c1.4,1.3,3.1,1.4,4.8,2H283c2.4-0.3,4.5-1.4,6.2-3.1c1.4-1.5,1.9-3.2,2.4-5V8.6
	C291.4,6.3,290.4,4.3,288.8,2.7z M156,30.1c7.7,0.1,15.3,0,23,0.1c2.3,0,3.6,1.1,3.6,3c0.1,1.9-1.3,3.2-3.6,3.2
	c-3.9,0.1-7.8,0-11.8,0c-3.7,0-7.5,0-11.2,0c-2.2,0-3.8-1.3-3.8-3.1C152.2,31.7,153.6,30.1,156,30.1L156,30.1z M142.6,28
	c2.8-0.1,5.3,2.2,5.3,5.1c0.1,2.8-2.2,5.3-5.1,5.3c-2.8,0.1-5.3-2.2-5.3-5.1c0,0,0,0,0-0.1C137.5,30.4,139.7,28.1,142.6,28
	C142.6,28,142.6,28,142.6,28L142.6,28z M160.1,406.6c-11.1,0.1-20.5-9.2-20.4-20.3c0.1-11.1,9.2-20.1,20.3-20.2
	c11.2-0.1,20.5,9.2,20.4,20.3C180.3,397.5,171.3,406.5,160.1,406.6L160.1,406.6z M269.5,352.7c-73-0.1-146-0.1-219,0
	C43,352.7,38.9,347,39,341c0.1-44.1,0.1-88.1,0.1-132.1s0-87.9,0-131.9c0-3.9,1.1-7.1,4.3-9.7c1.9-1.6,4.2-1.9,6.5-2.1
	c0.5-0.1,1,0,1.4,0h217.8c6.3,0,10.3,2.7,11.8,8c0.3,1.2,0.4,2.4,0.3,3.6c0,88.1,0,176.1,0.1,264.2
	C281.2,346.9,277.2,352.7,269.5,352.7L269.5,352.7z M160.1,371.8c-8,0.1-14.5,6.6-14.7,14.6c-0.1,8.1,6.5,14.7,14.7,14.8
	c8.1,0.1,14.7-6.5,14.8-14.7C174.9,378.5,168.1,371.7,160.1,371.8z M160.1,398.9c-6.9-0.1-12.4-5.8-12.3-12.7
	c0.1-6.9,5.8-12.4,12.7-12.3c6.8,0.1,12.3,5.7,12.3,12.5C172.7,393.3,167,398.9,160.1,398.9L160.1,398.9z"/>
<path class="st0" d="M160.1,371.8c-8,0.1-14.5,6.6-14.7,14.6c-0.1,8.1,6.5,14.7,14.7,14.8c8.1,0.1,14.7-6.5,14.8-14.7
	C174.9,378.5,168.1,371.7,160.1,371.8z M160.1,398.9c-6.9-0.1-12.4-5.8-12.3-12.7c0.1-6.9,5.8-12.4,12.7-12.3
	c6.8,0.1,12.3,5.7,12.3,12.5C172.7,393.3,167,398.9,160.1,398.9L160.1,398.9z"/>
<path class="st1" d="M160.1,371.8c-8,0.1-14.5,6.6-14.7,14.6c-0.1,8.1,6.5,14.7,14.7,14.8c8.1,0.1,14.7-6.5,14.8-14.7
	C174.9,378.5,168.1,371.7,160.1,371.8z M160.1,398.9c-6.9-0.1-12.4-5.8-12.3-12.7c0.1-6.9,5.8-12.4,12.7-12.3
	c6.8,0.1,12.3,5.7,12.3,12.5C172.7,393.3,167,398.9,160.1,398.9L160.1,398.9z"/>
<g>
	<path class="st2" d="M63.1,77.3h192.2c6.6,0,11.9,5.3,11.9,11.9v192.2c0,6.6-5.3,11.9-11.9,11.9H63.1c-6.6,0-11.9-5.3-11.9-11.9
		V89.1C51.2,82.6,56.6,77.3,63.1,77.3z"/>
	<path d="M133.6,109H83v50.6h50.6V109L133.6,109z M121.7,147.7H94.9v-26.9h26.8V147.7z"/>
	<rect x="102.3" y="128.4" width="11.9" height="11.9"/>
	<path d="M235.5,109h-50.6v50.6h50.6V109z M223.6,147.7h-26.9v-26.9h26.9V147.7z"/>
	<rect x="204.2" y="128.4" width="11.9" height="11.9"/>
	<path d="M133.6,210.9H83v50.6h50.6V210.9L133.6,210.9z M121.7,249.6H94.9v-26.8h26.8V249.6z"/>
	<rect x="102.3" y="230.2" width="11.9" height="11.9"/>
	<rect x="94.9" y="167.6" width="11.9" height="11.9"/>
	<polygon points="118.4,191.5 118.4,203.4 130.3,203.4 130.3,191.5 118.7,191.5 118.7,179.6 106.8,179.6 106.8,191.5 	"/>
	<rect x="166.4" y="131.9" width="11.9" height="11.9"/>
	<rect x="142.5" y="120.9" width="11.9" height="22.9"/>
	<rect x="154.5" y="109" width="11.9" height="11.9"/>
	<polygon points="166.4,143.9 154.5,143.9 154.5,155.7 142.5,155.7 142.5,167.6 166.4,167.6 	"/>
	<polygon points="154.5,203.4 154.5,215 166.4,215 166.4,226.7 190.2,226.7 190.2,214.7 166.4,214.7 166.4,203.1 154.5,203.1 
		154.5,179.6 142.5,179.6 142.5,203.4 	"/>
	<rect x="166.4" y="167.6" width="11.9" height="23.9"/>
	<path d="M202.1,203.1h33.3v-23.9h-11.9v-11.6h-21.7v11.9h-11.6v11.9h11.9L202.1,203.1L202.1,203.1L202.1,203.1z M202.1,179.6h21.5
		v11.6h-21.4L202.1,179.6L202.1,179.6z"/>
	<rect x="223.6" y="214.7" width="11.9" height="23.9"/>
	<rect x="178.3" y="191.5" width="11.9" height="11.9"/>
	<rect x="190.2" y="226.7" width="11.9" height="11.9"/>
	<rect x="202.1" y="214.7" width="11.9" height="11.9"/>
	<polygon points="214,261.5 214,250.4 223.6,250.4 223.6,238.5 202.1,238.5 202.1,261.5 	"/>
	<rect x="142.5" y="215" width="11.9" height="22.7"/>
	<polygon points="166.4,261.5 166.4,249.6 178,249.6 178,261.5 189.9,261.5 189.9,249.6 178.3,249.6 178.3,237.6 154.5,237.6 
		154.5,261.5 	"/>
	<rect x="118.7" y="167.6" width="23.9" height="11.9"/>
</g>
<g>
	<path d="M86.8,340.6c-3.3,0-5.8-0.9-7.6-2.6s-2.7-4.3-2.7-7.6h6.6c0,1.6,0.3,2.8,1,3.6c0.6,0.8,1.5,1.2,2.7,1.2
		c1,0,1.7-0.3,2.3-0.9c0.6-0.6,0.8-1.3,0.8-2.3c0-0.9-0.3-1.7-0.8-2.3c-0.5-0.6-1.3-1.2-2.4-1.8l-3.8-1.8c-2.1-1-3.6-2.2-4.6-3.6
		s-1.5-3.1-1.5-5.2c0-2.5,0.9-4.6,2.6-6.1s4-2.3,6.9-2.3c3.1,0,5.5,0.8,7.1,2.4c1.6,1.6,2.4,3.9,2.4,7h-6.5c0-2.8-1.1-4.2-3.2-4.2
		c-0.9,0-1.6,0.3-2.1,0.8s-0.8,1.2-0.8,2.1s0.3,1.6,0.8,2.2s1.4,1.2,2.7,1.8l4,2c2,1.1,3.4,2.2,4.3,3.6c0.9,1.3,1.3,3,1.3,4.9
		c0,2.7-0.9,4.9-2.6,6.6C92.1,339.8,89.8,340.6,86.8,340.6z"/>
	<path d="M107.8,340.4c-3,0-5.4-1-7.1-2.9c-1.7-1.9-2.6-4.6-2.6-8c0-3.3,0.9-5.9,2.6-7.9c1.8-2,4.1-3,7-3s5.2,0.7,6.8,2.2
		c1.6,1.4,2.4,3.5,2.4,6.2h-6.1c-0.1-2.1-1.1-3.1-3-3.1c-1.1,0-2,0.5-2.6,1.5s-0.9,2.4-0.9,4.1c0,3.7,1.2,5.6,3.6,5.6
		c1.8,0,2.8-1,3-2.9h6.1c-0.1,2.7-1,4.7-2.6,6.1C112.8,339.6,110.6,340.4,107.8,340.4z"/>
	<path d="M127.1,340.4c-2.5,0-4.5-1-5.9-3c-1.5-2-2.2-4.6-2.2-7.9s0.7-5.9,2.2-7.8c1.5-2,3.5-3,5.9-3c2.8,0,4.7,1.2,5.7,3.6v-3h6.3
		v20.5h-6.3v-3C131.7,339.1,129.8,340.4,127.1,340.4z M129.1,335.1c1.2,0,2.2-0.5,2.9-1.4c0.7-1,1-2.3,1-4.1s-0.3-3.1-1-4.1
		s-1.6-1.4-2.9-1.4c-1.3,0-2.2,0.5-2.9,1.4s-1,2.3-1,4.1c0,1.8,0.3,3.2,1,4.1S127.8,335.1,129.1,335.1z"/>
	<path d="M143.2,339.8v-20.5h6.2v2.9c1.1-2.3,3.1-3.5,5.8-3.5c2,0,3.6,0.6,4.7,1.9c1.1,1.3,1.6,3.2,1.6,5.7v13.4h-6.3V328
		c0-1.4-0.2-2.5-0.6-3.1c-0.4-0.7-1.1-1-2.1-1c-2.1,0-3.1,1.6-3.1,4.7v11.1h-6.2L143.2,339.8L143.2,339.8z"/>
	<path d="M173.9,339.8v-30h7.4l5.7,21.4l5.7-21.4h7.4v30h-6v-18.3l-4.9,18.3h-4.4l-4.9-18.3v18.3H173.9z"/>
	<path d="M222.1,328.3c0,1.1-0.1,2-0.2,3h-12.6c0.1,1.4,0.4,2.5,1,3.3s1.5,1.2,2.7,1.2c1.7,0,2.7-0.7,3.1-2.1h5.6
		c-0.3,2.2-1.2,3.8-2.7,5s-3.5,1.8-6,1.8c-3.2,0-5.6-0.9-7.4-2.8c-1.7-1.9-2.6-4.5-2.6-8s0.9-6.1,2.6-8.1c1.7-1.9,4.1-2.9,7.2-2.9
		c2.9,0,5.2,0.9,6.8,2.6C221.3,322.9,222.1,325.4,222.1,328.3z M209.3,327.3h6.8c0-2.9-1.1-4.4-3.3-4.4S209.4,324.3,209.3,327.3z"/>
	<path d="M240.6,338.9c-0.8,0.8-1.9,1.3-3.1,1.3s-2.2-0.4-3.1-1.3c-0.8-0.8-1.3-1.8-1.3-3s0.4-2.2,1.3-3c0.8-0.8,1.9-1.3,3.1-1.3
		s2.2,0.4,3.1,1.3c0.8,0.8,1.3,1.8,1.3,3S241.5,338.1,240.6,338.9z M234.4,329.4v-19.6h6.4v19.6H234.4z"/>
</g>
</svg>
