<?xml version="1.0" encoding="utf-8"?>
<!-- Generator: Adobe Illustrator 24.1.2, SVG Export Plug-In . SVG Version: 6.00 Build 0)  -->
<svg version="1.1" id="TEXTO" xmlns="http://www.w3.org/2000/svg" xmlns:xlink="http://www.w3.org/1999/xlink" x="0px" y="0px"
	 viewBox="0 0 320 418" style="enable-background:new 0 0 320 418;" xml:space="preserve">
<style type="text/css">
	.st0{fill:#E5E7EF;}
</style>
<path d="M47.4,263.1c-1.6,0-2.9-1.3-2.9-2.9V103.7c0-5.2,3.9-9.5,8.8-9.5h138.5c1.6,0,2.9,1.3,2.9,2.9c0,1.6-1.3,2.9-2.9,2.9H53.2
	c-1.7,0-3,1.7-3,3.8v156.5C50.2,261.8,49,263.1,47.4,263.1z"/>
<path d="M266.7,325.2H128.2c-1.6,0-2.9-1.3-2.9-2.9c0-1.6,1.3-2.9,2.9-2.9h138.5c1.7,0,3-1.7,3-3.8V159.2c0-1.6,1.3-2.9,2.9-2.9
	c1.6,0,2.9,1.3,2.9,2.9v156.5C275.5,320.9,271.6,325.2,266.7,325.2L266.7,325.2z"/>
<path d="M100,311.9H62.1c-3.3,0-5.6-0.6-6.8-1.9c-0.7-0.8-1-1.8-1-3.3c0.2-3,0.4-5.9,0.6-8.4c0.5-5.2,0.8-9.4,0.2-12.6
	c-0.8-4.3-3.3-6.8-7.4-7.4c-3.7-0.6-6.8,0.9-9,4.3c-1.7,2.6-2.8,6-4.2,9.9c-1,2.9-2,6-3.4,9.1c-0.4,0.9-1.3,1.4-3,2.3
	c-2.2,1.1-5.1,2.6-7.6,6.1c-0.4,0.6-0.9,1.3-1.2,1.9H0v5.8h16.7c-1.5,4.2-2.2,7.9-2.2,8.1c-0.3,1.6,0.8,3,2.3,3.3
	c1.6,0.3,3-0.8,3.3-2.3c0-0.1,1.5-8.5,5.1-13.4c1.7-2.3,3.6-3.4,5.6-4.4c2.1-1.1,4.4-2.3,5.7-5.1c1.5-3.3,2.6-6.7,3.6-9.6
	c2.8-8.3,4.1-10.7,6.8-10.3c1.7,0.3,2.3,0.9,2.7,2.8c0.4,2.5,0.1,6.3-0.3,11.1c-0.2,2.6-0.5,5.4-0.7,8.6c-0.2,3,0.7,5.6,2.5,7.6
	c2.3,2.4,6,3.7,11,3.7H100c2.2,0,3.7,1.7,3.7,4.1c0,2.4-1.9,3.8-3.7,3.8H77c-0.5-0.1-1-0.1-1.5-0.1H54.4c-5.3,0-9.6,4.3-9.6,9.6
	c0,3.5,1.9,6.6,4.8,8.3c-1,1.5-1.5,3.3-1.5,5.2c0,3.3,1.7,6.2,4.2,7.9c-1.1,1.6-1.7,3.5-1.7,5.5c0,1.3,0.3,2.6,0.8,3.8
	c-20.5-0.3-21.5-1.7-26-7.6c-1.2-1.7-2.4-3.9-3.3-6.8c-0.5-1.5-2.1-2.3-3.6-1.8c-1.5,0.5-2.3,2.1-1.8,3.6c0.4,1.2,0.8,2.2,1.3,3.3H0
	v5.8h21.1c2.8,3.8,5.2,6.5,11.3,7.9c5,1.1,12.5,1.4,27.3,1.4c0.1,0,0.2,0,0.3,0h15.4c5.3,0,9.6-4.3,9.6-9.6c0-2.6-1.1-5-2.8-6.7
	c1.7-1.7,2.8-4.1,2.8-6.7c0-2.6-1.1-5-2.8-6.7c1.7-1.7,2.8-4.1,2.8-6.7c0-1.3-0.3-2.6-0.7-3.7H100c5.2,0,9.5-4.3,9.5-9.6
	C109.5,316.1,105.4,311.9,100,311.9L100,311.9z M79.3,348.4c0,2.1-1.7,3.8-3.8,3.8H57.6c-2.1,0-3.8-1.7-3.8-3.8s1.7-3.8,3.8-3.8
	h17.8C77.6,344.6,79.3,346.3,79.3,348.4z M75.4,365.7H65.3c-1.9,0-3.7,0-5.3,0c-2-0.1-3.7-1.8-3.7-3.8c0-2.1,1.7-3.8,3.8-3.8h15.4
	c2.1,0,3.8,1.7,3.8,3.8S77.6,365.7,75.4,365.7z M79.3,335c0,2.1-1.7,3.8-3.8,3.8H54.3c-2.1,0-3.8-1.7-3.8-3.8s1.7-3.8,3.8-3.8h20.2
	c0.3,0.1,0.5,0.1,0.8,0.1h1C78.1,331.7,79.3,333.2,79.3,335L79.3,335z"/>
<path d="M320,55.9h-21.1c-2.9-3.8-5.2-6.5-11.3-7.9c-5.6-1.2-14.3-1.4-32.9-1.4h-10.1c-5.3,0-9.6,4.3-9.6,9.6c0,2.6,1.1,5,2.8,6.7
	c-1.7,1.7-2.8,4.1-2.8,6.7s1.1,5,2.8,6.7c-1.7,1.7-2.8,4.1-2.8,6.7c0,1.3,0.3,2.6,0.7,3.7H220c-5.2,0-9.5,4.3-9.5,9.6
	c0,5.6,4.1,9.8,9.5,9.8h37.9c3.3,0,5.6,0.6,6.8,1.9c0.7,0.8,1,1.8,1,3.3c-0.2,3-0.4,5.9-0.6,8.4c-0.5,5.2-0.8,9.4-0.2,12.6
	c0.8,4.3,3.3,6.8,7.4,7.4c0.5,0.1,1.1,0.1,1.6,0.1c3,0,5.5-1.5,7.4-4.4c1.7-2.6,2.8-6,4.2-9.9c1-2.9,2-6,3.4-9.1
	c0.4-0.9,1.3-1.4,3-2.3c2.2-1.1,5.1-2.6,7.6-6.1c0.4-0.6,0.9-1.2,1.2-2h19.3v-5.8h-16.7c1.5-4.2,2.2-7.9,2.2-8.1
	c0.3-1.6-0.8-3.1-2.3-3.3c-1.6-0.3-3,0.8-3.3,2.3c0,0.1-1.5,8.5-5.1,13.4c-1.7,2.3-3.6,3.4-5.6,4.4c-2.1,1.1-4.4,2.3-5.7,5.1
	c-1.5,3.3-2.6,6.7-3.6,9.6c-2.8,8.3-4.1,10.7-6.8,10.3c-1.7-0.3-2.3-0.9-2.7-2.8c-0.4-2.5-0.1-6.3,0.3-11.1c0.2-2.6,0.5-5.4,0.6-8.6
	c0.2-3-0.7-5.6-2.5-7.6c-2.3-2.4-6-3.7-11-3.7H220c-2.2,0-3.7-1.7-3.7-4.1s1.9-3.8,3.7-3.8h23c0.5,0.1,1,0.1,1.5,0.1
	c1.2,0,2.2-0.7,2.7-1.8c0.2-0.4,0.3-0.8,0.3-1.2c0-1.6-1.3-2.9-2.9-2.9h-1c-1.7-0.4-2.9-1.9-2.9-3.7c0-2.1,1.7-3.8,3.8-3.8
	c1.6,0,2.9-1.3,2.9-2.9c0-1.6-1.3-2.9-2.9-2.9c-2.1,0-3.8-1.7-3.8-3.8c0-2.1,1.7-3.8,3.8-3.8c1.6,0,2.9-1.3,2.9-2.9
	c0-1.6-1.3-2.9-2.9-2.9c-2.1,0-3.8-1.7-3.8-3.8c0-2.1,1.7-3.8,3.8-3.8h10.1c34.3,0,34.7,0.6,40.1,7.7c1.2,1.7,2.4,3.9,3.3,6.8
	c0.5,1.5,2.1,2.3,3.6,1.8c1.5-0.5,2.3-2.1,1.8-3.6c-0.4-1.2-0.8-2.3-1.3-3.3h17.7L320,55.9L320,55.9z"/>
<g>
	<path class="st0" d="M81.8,123.2h155c5.3,0,9.6,4.3,9.6,9.6v155c0,5.3-4.3,9.6-9.6,9.6h-155c-5.3,0-9.6-4.3-9.6-9.6V132.7
		C72.1,127.5,76.5,123.2,81.8,123.2z"/>
</g>
<g>
</g>
</svg>
