<?xml version="1.0" encoding="utf-8"?>
<!-- Generator: Adobe Illustrator 24.1.2, SVG Export Plug-In . SVG Version: 6.00 Build 0)  -->
<svg version="1.1" id="TEXTO" xmlns="http://www.w3.org/2000/svg" xmlns:xlink="http://www.w3.org/1999/xlink" x="0px" y="0px"
	 viewBox="0 0 320 418" style="enable-background:new 0 0 320 418;" xml:space="preserve">
<style type="text/css">
	.st0{fill:#585858;}
	.st1{fill:#E5E7EF;}
	.st2{fill:#FFFFFF;}
</style>
<path d="M307.2,80.1c0-12.2-9.9-22-22-22H34.9c-12.2,0-22,9.9-22,22L2.8,391c0,12.2,9.9,22,22,22h270.4c12.2,0,22-9.9,22-22
	L307.2,80.1L307.2,80.1z M25.9,80.1c0-4.9,4-9,9-9h250.3c4.9,0,9,4,9,9v259.3H25.9V80.1z"/>
<g>
	<polygon points="113.7,4.9 88.7,29.7 88.7,82.5 113.7,82.5 	"/>
	<polygon points="206.3,4.9 231.3,29.7 231.3,82.5 206.3,82.5 	"/>
	<rect x="113.7" y="4.8" class="st0" width="92.6" height="25.1"/>
</g>
<g>
	<path class="st1" d="M58.4,93.9h201.7c6.9,0,12.5,5.6,12.5,12.5v201.7c0,6.9-5.6,12.5-12.5,12.5H58.4c-6.9,0-12.5-5.6-12.5-12.5
		V106.4C45.9,99.5,51.5,93.9,58.4,93.9z"/>
</g>
<g>
</g>
</svg>
