<?xml version="1.0" encoding="utf-8"?>
<!-- Generator: Adobe Illustrator 24.1.2, SVG Export Plug-In . SVG Version: 6.00 Build 0)  -->
<svg version="1.1" id="TEXTO" xmlns="http://www.w3.org/2000/svg" xmlns:xlink="http://www.w3.org/1999/xlink" x="0px" y="0px"
	 viewBox="0 0 320 418" style="enable-background:new 0 0 320 418;" xml:space="preserve">
<style type="text/css">
	.st0{fill:#E5E7EF;}
</style>
<polygon points="276,166.8 313,199.2 277.6,227.1 "/>
<polygon points="44.1,166.8 7.1,199.2 42.4,227.1 "/>
<path d="M280.6,163.1V28.6c0-7.7-6.2-13.9-13.9-13.9H53.5c-7.7,0-13.9,6.2-13.9,13.9v134.5L1.4,192.6v190.7
	c0,11.9,9.7,21.6,21.6,21.6h274.1c11.9,0,21.6-9.7,21.6-21.6V192.6L280.6,163.1L280.6,163.1z M307.3,210.9v145.8l-94.2-72.9
	L307.3,210.9L307.3,210.9z M306.1,197.3L280.6,217v-39.5L306.1,197.3L306.1,197.3z M53.5,25.1h213.2c1.9,0,3.5,1.6,3.5,3.5v196.6
	l-66.4,51.4l-30.1-23.3c-8-6.2-19.2-6.2-27.3,0l-30.1,23.3L50,225.1V28.6C50,26.6,51.5,25.1,53.5,25.1L53.5,25.1z M107,283.8
	l-94.2,72.9V210.9L107,283.8L107,283.8z M39.5,217L14,197.3l25.5-19.7V217L39.5,217z M297.1,393.5H23c-5.6,0-10.2-4.6-10.2-10.2
	v-12.3l140.6-108.9c3.9-3,9.4-3,13.3,0l140.6,108.9v12.3C307.3,389,302.7,393.5,297.1,393.5L297.1,393.5z"/>
<g>
	<path class="st0" d="M75.8,37.5h166.9c5.7,0,10.4,4.6,10.4,10.4v166.9c0,5.7-4.6,10.4-10.4,10.4H75.8c-5.7,0-10.4-4.6-10.4-10.4
		V47.8C65.5,42.1,70.1,37.5,75.8,37.5z"/>
</g>
<g>
</g>
</svg>
