<?xml version="1.0" encoding="utf-8"?>
<!-- Generator: Adobe Illustrator 24.1.2, SVG Export Plug-In . SVG Version: 6.00 Build 0)  -->
<svg version="1.1" id="TEXTO" xmlns="http://www.w3.org/2000/svg" xmlns:xlink="http://www.w3.org/1999/xlink" x="0px" y="0px"
	 viewBox="0 0 320 418" style="enable-background:new 0 0 320 418;" xml:space="preserve">
<style type="text/css">
	.st0{fill:#585858;}
	.st1{fill:#E5E7EF;}
</style>
<path d="M263.6,59.4c1.8,0,3.3,1.5,3.3,3.3V266H60.3V62.6c0-1.8,1.5-3.3,3.3-3.3L263.6,59.4 M263.6,49.5H63.6
	c-7.2,0-13.1,5.9-13.1,13.1v213.2h226.3V62.6C276.7,55.4,270.8,49.5,263.6,49.5L263.6,49.5z"/>
<path class="st0" d="M19.3,265.9h288.5c2.5,0,4.4,2,4.4,4.4l0,0c0,2.5-2,4.4-4.4,4.4H19.3c-2.5,0-4.4-2-4.4-4.4l0,0
	C14.9,267.8,16.9,265.9,19.3,265.9z"/>
<path d="M264.8,304.8H62.4c-16.6,0-30.1-13.5-30.1-30.1l0,0h262.6l0,0C294.9,291.3,281.4,304.8,264.8,304.8z"/>
<path d="M251.6,307.8c-4.6-5.3-11.5-6.4-17.9-3c-3.3-3.2-9.3-3.3-14.4-1.4c-1.9,0.7-24.6,9.7-31.9,12.6c-2.7-4.6-8.4-6.4-10.8-7.1
	c-3.7-1.1-54.6-10.2-73.8-6c-6.5,1.4-56.9,20.3-59,21.1c-1.5,0.6-2.3,2.3-1.7,3.8c0.6,1.5,2.3,2.3,3.8,1.7
	c14.5-5.4,53.1-19.7,58.2-20.8c16.9-3.7,66.1,4.4,70.9,5.8c5.9,1.8,8.2,3.9,8.1,7.5c-0.2,4.1-2.3,5.9-8.4,7.1
	c-4.2,0.8-39.5,3.5-52.7,4.6c-1.6,0.1-2.8,1.5-2.7,3.2c0.1,1.5,1.4,2.7,2.9,2.7c0.1,0,0.2,0,0.2,0c0.9-0.1,10.2-0.8,21-1.6
	c2.8,1.5,13.5,7.2,18.1,9.5c7.2,3.6,11.9,0.9,17.8-2.4c0.7-0.4,1.5-0.8,2.3-1.2c3.6-2,48.2-29.2,53.6-32.9c1.7-1.1,7.6-4.5,12.2,0.8
	c1.1,1.3,1.6,2.9,1.5,4.7c-0.2,2.1-1.3,4-3.1,5.4c-2.2,1.8-56,44.1-62.7,48.7c-11.5,7.8-25.3,10-41.3,6.5
	c-3.5-0.8-45.1-12.5-66.6-18.6c-0.6-0.2-1.2-0.1-1.8,0.1L58.5,364c-1.5,0.6-2.3,2.3-1.7,3.8c0.6,1.5,2.3,2.3,3.8,1.7l13.8-5.2
	c8.1,2.3,61.7,17.5,66,18.4c5.4,1.2,10.6,1.8,15.6,1.8c11.2,0,21.4-3,30.3-9.1c7-4.7,61-47.2,63.1-48.9c3.1-2.5,4.9-5.8,5.3-9.5
	C254.8,313.5,253.8,310.3,251.6,307.8L251.6,307.8z M178.5,338.6c-0.8,0.4-1.6,0.9-2.3,1.3c-6.1,3.4-8.2,4.4-12.3,2.3
	c-2.3-1.1-6.2-3.2-9.9-5.1c10.2-0.9,19.3-1.7,21.5-2.1c3.5-0.7,12.7-2.4,13.2-12.6c0-0.2,0-0.4,0-0.6c11.4-4.5,30.8-12.2,32.4-12.8
	c2.5-0.9,5.1-1.1,6.9-0.6C216.1,315.9,181.7,336.9,178.5,338.6L178.5,338.6z"/>
<polygon class="st0" points="-0.1,415.5 5.5,415.5 63.7,378.8 41.1,316.3 -0.1,328 "/>
<g>
	<path class="st1" d="M83.9,75.2h156.7c5.3,0,9.7,4.3,9.7,9.7v156.7c0,5.3-4.3,9.7-9.7,9.7H83.9c-5.3,0-9.7-4.3-9.7-9.7V84.9
		C74.2,79.6,78.6,75.2,83.9,75.2z"/>
</g>
<g>
</g>
</svg>
