<?xml version="1.0" encoding="utf-8"?>
<!-- Generator: Adobe Illustrator 24.1.2, SVG Export Plug-In . SVG Version: 6.00 Build 0)  -->
<svg version="1.1" id="TEXTO" xmlns="http://www.w3.org/2000/svg" xmlns:xlink="http://www.w3.org/1999/xlink" x="0px" y="0px"
	 viewBox="0 0 320 418" style="enable-background:new 0 0 320 418;" xml:space="preserve">
<style type="text/css">
	.st0{fill:#585858;}
	.st1{fill:#FFFFFF;}
	.st2{fill:#E5E7EF;}
</style>
<path d="M302.7,58.8L302.7,58.8v285.3H17.3V58.8L302.7,58.8 M302.7,46.4H17.3c-6.9,0-12.4,5.6-12.4,12.4v285.3
	c0,6.9,5.6,12.4,12.4,12.4h285.3c6.9,0,12.4-5.6,12.4-12.4V58.8C315.1,52,309.5,46.4,302.7,46.4L302.7,46.4z"/>
<path d="M302.7,410.5H17.3c-6.9,0-12.4-5.6-12.4-12.4v-53.7h310.1v53.7C315.1,404.9,309.5,410.5,302.7,410.5z"/>
<g>
	<path class="st0" d="M115.8,27.9h89c11.7,0,21.2,9.5,21.2,21.2v15.2c0,2.3-1.8,4.1-4.1,4.1H98.7c-2.3,0-4.1-1.8-4.1-4.1V49.1
		C94.6,37.4,104.1,27.9,115.8,27.9z"/>
	<circle class="st0" cx="160.3" cy="28" r="20.5"/>
	<ellipse class="st1" cx="160.3" cy="28" rx="8.1" ry="8.1"/>
</g>
<g>
	<path class="st2" d="M49.2,81.5h220.2c7.5,0,13.7,6.1,13.7,13.7v220.2c0,7.5-6.1,13.7-13.7,13.7H49.2c-7.5,0-13.7-6.1-13.7-13.7
		V95.1C35.5,87.6,41.6,81.5,49.2,81.5z"/>
</g>
<g>
</g>
</svg>
