<?xml version="1.0" encoding="utf-8"?>
<!-- Generator: Adobe Illustrator 24.1.2, SVG Export Plug-In . SVG Version: 6.00 Build 0)  -->
<svg version="1.1" id="TEXTO" xmlns="http://www.w3.org/2000/svg" xmlns:xlink="http://www.w3.org/1999/xlink" x="0px" y="0px"
	 viewBox="0 0 320 418" style="enable-background:new 0 0 320 418;" xml:space="preserve">
<style type="text/css">
	.st0{fill:#585858;}
	.st1{fill:#FFFFFF;}
	.st2{fill:#E5E7EF;}
</style>
<ellipse class="st0" cx="160" cy="29.1" rx="26.5" ry="24.4"/>
<ellipse cx="160" cy="116.4" rx="135.7" ry="91"/>
<ellipse cx="160" cy="150.1" rx="141.2" ry="71.5"/>
<g>
	<path d="M310.6,351.6c0-10.1,0-27.9,0-27.9l-301-2.9c0,0-0.3,18.4-0.3,30.8c0,34.1,67.4,61.7,150.6,61.7S310.6,385.7,310.6,351.6
		L310.6,351.6z"/>
	<ellipse class="st0" cx="160" cy="308.5" rx="157.2" ry="79.6"/>
	<ellipse cx="160" cy="300.2" rx="141.2" ry="71.5"/>
</g>
<path class="st1" d="M269.2,305.2H50.8V99.3c0-6.9,5.6-12.6,12.6-12.6h193.3c6.9,0,12.6,5.6,12.6,12.6V305.2z"/>
<path d="M260.8,92c1.7,0,3.1,1.4,3.1,3.1v204.8H56V95.1c0-1.7,1.4-3.1,3.1-3.1H260.8 M260.8,82.5H59.2c-6.9,0-12.6,5.6-12.6,12.6
	v214.2h226.8V95.1C273.4,88.2,267.8,82.5,260.8,82.5L260.8,82.5z"/>
<path class="st0" d="M160,62.2C73.2,62.2,2.8,97.8,2.8,141.8c0,21.4,16.7,40.8,43.8,55.1v-4.1c-17.5-11.9-27.9-26.7-27.9-42.7
	c0-39.5,63.2-71.6,141.2-71.6s141.2,32.1,141.2,71.6c0,16-10.3,30.7-27.8,42.7v4.1c27.1-14.3,43.8-33.7,43.8-55.1
	C317.2,97.8,246.8,62.2,160,62.2L160,62.2z"/>
<g>
	<path class="st2" d="M80.7,106h157.1c5.4,0,9.7,4.3,9.7,9.7v157.1c0,5.4-4.3,9.7-9.7,9.7H80.7c-5.4,0-9.7-4.3-9.7-9.7V115.7
		C71,110.3,75.4,106,80.7,106z"/>
</g>
<g>
</g>
</svg>
