<?xml version="1.0" encoding="utf-8"?>
<!-- Generator: Adobe Illustrator 24.1.2, SVG Export Plug-In . SVG Version: 6.00 Build 0)  -->
<svg version="1.1" id="TEXTO" xmlns="http://www.w3.org/2000/svg" xmlns:xlink="http://www.w3.org/1999/xlink" x="0px" y="0px"
	 viewBox="0 0 320 418" style="enable-background:new 0 0 320 418;" xml:space="preserve">
<style type="text/css">
	.st0{fill:#E5E7EF;}
	.st1{fill:#FFFFFF;}
</style>
<path d="M266.1,149.5v-49.4H143.3c0,0,0,0.1-0.1,0.1c-2.1,3.8-4.7,6.9-8,9.7h121.1v39.6L266.1,149.5L266.1,149.5z"/>
<polygon points="256.3,340 256.3,291.9 266.1,291.9 266.1,340 "/>
<path d="M50.4,325.6V109.9h36c-1.6-2.2-3.3-4.3-4.7-6.6c-0.7-1.1-1.3-2.2-1.8-3.2H40.6v225.5H50.4z"/>
<path d="M249.2,381.8H57.4c-9.3,0-16.9-7.6-16.9-16.9V317h225.5v47.9C266.1,374.3,258.5,381.8,249.2,381.8z"/>
<g>
	<path d="M26.4,249.6c-9.5,0-23-8.5-23-27.6c0-13,7.1-26.9,12.9-38.1c2.2-4.3,4.3-8.4,5.5-11.5c1.3-3.3-0.3-9.4-2.1-16.3
		c-2.9-11.3-7-26.8-3.2-45.9c3.3-16.7,12-29.2,25.8-37c10.5-6,21.1-7.6,26-8.2c0.2-0.2,0.3-0.4,0.5-0.6c4.1-4.5,13.8-15.2,26.7-24.7
		c16.4-12.2,32.4-18.4,47.4-18.4c15.8,0,31,5,43.8,14.6c9.7,7.2,14.7,14.5,14.9,14.8c1.5,2.3,0.9,5.3-1.3,6.8
		c-2.2,1.5-5.3,0.9-6.8-1.3c0-0.1-4.4-6.4-12.9-12.7c-11.2-8.2-23.8-12.4-37.6-12.4c-20.3,0-42.8,13.4-66.8,39.9
		c-0.9,1-1.5,1.6-1.9,2.1c-0.8,0.8-1.7,1.2-2.7,1.4c-0.4,0.1-0.8,0.1-1.4,0.2c-24.9,3.4-39.8,16-44,37.5
		c-3.3,16.9,0.2,30.6,3.1,41.5c2.3,8.9,4.2,16,1.8,22.3c-1.4,3.6-3.6,7.9-6,12.5c-5.3,10.2-11.8,23-11.8,33.6
		c0,13.4,8.9,17.8,13.1,17.8c6.4,0,11.2-3.7,14-11c1-2.5,3.8-3.8,6.3-2.8s3.8,3.8,2.8,6.3C47.1,238.4,43.6,243,39,246
		C35.3,248.4,31,249.6,26.4,249.6L26.4,249.6z"/>
	<path d="M110.1,124.8c-10.2,0-19.4-4.1-26.7-11.9c-5.4-5.8-7.9-11.6-8-11.8c-1-2.5,0.1-5.4,2.6-6.4c2.5-1,5.4,0.1,6.4,2.6
		c0,0,2,4.7,6.3,9.2c5.5,5.7,12,8.6,19.4,8.6c18.4,0,25.5-12.5,25.6-12.6c0.9-1.5,2.5-2.5,4.3-2.5h111.3c2-6.6,2.1-13.6,0.1-20.3
		c-2.6-9.3-8.7-16.9-17.2-21.6c-8.4-4.7-18.1-5.8-27.4-3.1c-5.8,1.7-11.1,4.7-15.3,8.9c-1.9,1.9-5,1.9-6.9-0.1s-1.9-5,0.1-6.9
		c5.4-5.3,12.2-9.3,19.5-11.3c11.8-3.4,24.2-2,34.9,4c10.7,6,18.5,15.7,21.8,27.5c2.8,9.9,2.3,20.2-1.5,29.7
		c-0.8,1.9-2.6,3.1-4.5,3.1H142.6C138.9,114.6,128.8,124.8,110.1,124.8L110.1,124.8z"/>
</g>
<path d="M100.9,73.2c-0.7,0-1.4-0.3-2-0.8c-1.2-1.1-1.2-3-0.2-4.2c10.9-11.7,27.8-25.6,46.3-25.1c5.4,0.1,10.8,1.1,15.8,3
	c1.5,0.6,2.3,2.3,1.8,3.8c-0.6,1.5-2.3,2.3-3.8,1.8c-4.5-1.6-9.2-2.6-14-2.6c-16.3-0.5-31.8,12.4-41.8,23.2
	C102.5,72.9,101.7,73.2,100.9,73.2L100.9,73.2z"/>
<path d="M292.1,301.7h-30.7v-9.8h30.7c8,0,14.6-6.5,14.6-14.6V164.1c0-8-6.5-14.6-14.6-14.6h-30.7v-9.8h30.7
	c13.4,0,24.4,11,24.4,24.4v113.2C316.5,290.8,305.5,301.7,292.1,301.7z"/>
<path d="M285.8,275.3h-29.4V166.1h29.4c4.7,0,8.5,3.8,8.5,8.5v92.2C294.4,271.5,290.5,275.3,285.8,275.3z M266.3,265.5h18.3v-89.6
	h-18.3V265.5z"/>
<g>
	<path class="st0" d="M77.3,130.3h152.3c5.2,0,9.4,4.2,9.4,9.4V292c0,5.2-4.2,9.4-9.4,9.4H77.3c-5.2,0-9.4-4.2-9.4-9.4V139.7
		C67.8,134.5,72.1,130.3,77.3,130.3z"/>
	<path d="M133.1,155.5H93v40.1h40.1V155.5L133.1,155.5z M123.7,186.1h-21.2v-21.3h21.2V186.1z"/>
	<rect x="108.3" y="170.8" width="9.4" height="9.4"/>
	<path d="M213.8,155.5h-40.1v40.1h40.1V155.5z M204.4,186.1h-21.3v-21.3h21.3V186.1z"/>
	<rect x="189" y="170.8" width="9.4" height="9.4"/>
	<path d="M133.1,236.1H93v40.1h40.1V236.1L133.1,236.1z M123.7,266.8h-21.2v-21.2h21.2V266.8z"/>
	<rect x="108.3" y="251.5" width="9.4" height="9.4"/>
	<rect x="102.4" y="201.9" width="9.4" height="9.4"/>
	<polygon points="121.1,220.8 121.1,230.2 130.5,230.2 130.5,220.8 121.3,220.8 121.3,211.4 111.9,211.4 111.9,220.8 	"/>
	<rect x="159.1" y="173.6" width="9.4" height="9.4"/>
	<rect x="140.2" y="164.9" width="9.4" height="18.1"/>
	<rect x="149.6" y="155.5" width="9.4" height="9.4"/>
	<polygon points="159.1,183.1 149.6,183.1 149.6,192.5 140.2,192.5 140.2,201.9 159.1,201.9 	"/>
	<polygon points="149.6,230.2 149.6,239.5 159.1,239.5 159.1,248.7 177.9,248.7 177.9,239.2 159.1,239.2 159.1,230 149.6,230 
		149.6,211.4 140.2,211.4 140.2,230.2 	"/>
	<rect x="159.1" y="201.9" width="9.4" height="18.9"/>
	<path d="M187.4,230h26.4v-18.9h-9.4v-9.2h-17.2v9.4H178v9.4h9.4L187.4,230L187.4,230L187.4,230z M187.4,211.4h17v9.2h-17
		L187.4,211.4L187.4,211.4z"/>
	<rect x="204.4" y="239.2" width="9.4" height="18.9"/>
	<rect x="168.5" y="220.8" width="9.4" height="9.4"/>
	<rect x="177.9" y="248.7" width="9.4" height="9.4"/>
	<rect x="187.4" y="239.2" width="9.4" height="9.4"/>
	<polygon points="196.8,276.3 196.8,267.4 204.4,267.4 204.4,258 187.4,258 187.4,276.3 	"/>
	<rect x="140.2" y="239.5" width="9.4" height="18"/>
	<polygon points="159.1,276.3 159.1,266.8 168.3,266.8 168.3,276.3 177.7,276.3 177.7,266.8 168.5,266.8 168.5,257.4 149.6,257.4 
		149.6,276.3 	"/>
	<rect x="121.3" y="201.9" width="18.9" height="9.4"/>
</g>
<g>
	<path class="st1" d="M84,364.1c-3.3,0-5.8-0.9-7.6-2.6c-1.8-1.7-2.7-4.3-2.7-7.6h6.6c0,1.6,0.3,2.8,1,3.6c0.6,0.8,1.5,1.2,2.7,1.2
		c1,0,1.7-0.3,2.3-0.9c0.6-0.6,0.8-1.3,0.8-2.3c0-0.9-0.3-1.7-0.8-2.3c-0.5-0.6-1.3-1.2-2.4-1.8l-3.8-1.8c-2.1-1-3.6-2.2-4.6-3.6
		s-1.5-3.1-1.5-5.2c0-2.5,0.9-4.6,2.6-6.1s4-2.3,6.9-2.3c3.1,0,5.5,0.8,7.1,2.4s2.4,3.9,2.4,7h-6.5c0-2.8-1.1-4.2-3.2-4.2
		c-0.9,0-1.6,0.3-2.1,0.8s-0.8,1.2-0.8,2.1s0.3,1.6,0.8,2.2s1.4,1.2,2.7,1.8l4,2c2,1.1,3.4,2.2,4.3,3.6c0.9,1.3,1.3,3,1.3,4.9
		c0,2.7-0.9,4.9-2.6,6.6C89.3,363.3,87,364.1,84,364.1z"/>
	<path class="st1" d="M105,363.9c-3,0-5.4-1-7.1-2.9c-1.7-1.9-2.6-4.6-2.6-8c0-3.3,0.9-5.9,2.6-7.9c1.8-2,4.1-3,7-3s5.2,0.7,6.8,2.2
		c1.6,1.4,2.4,3.5,2.4,6.2H108c-0.1-2.1-1.1-3.1-3-3.1c-1.1,0-2,0.5-2.6,1.5s-0.9,2.4-0.9,4.1c0,3.7,1.2,5.6,3.6,5.6
		c1.8,0,2.8-1,3-2.9h6.1c-0.1,2.7-1,4.7-2.6,6.1C110,363.1,107.8,363.9,105,363.9z"/>
	<path class="st1" d="M124.3,363.9c-2.5,0-4.5-1-5.9-3c-1.5-2-2.2-4.6-2.2-7.9s0.7-5.9,2.2-7.8c1.5-2,3.5-3,5.9-3
		c2.8,0,4.7,1.2,5.7,3.6v-3h6.3v20.5H130v-3C128.9,362.6,127,363.9,124.3,363.9z M126.3,358.6c1.2,0,2.2-0.5,2.9-1.4
		c0.7-1,1-2.3,1-4.1s-0.3-3.1-1-4.1s-1.6-1.4-2.9-1.4c-1.3,0-2.2,0.5-2.9,1.4s-1,2.3-1,4.1c0,1.8,0.3,3.2,1,4.1
		S125,358.6,126.3,358.6z"/>
	<path class="st1" d="M140.4,363.3v-20.5h6.2v2.9c1.1-2.3,3.1-3.5,5.8-3.5c2,0,3.6,0.6,4.7,1.9c1.1,1.3,1.6,3.2,1.6,5.7v13.4h-6.3
		v-11.7c0-1.4-0.2-2.5-0.6-3.1c-0.4-0.7-1.1-1-2.1-1c-2.1,0-3.1,1.6-3.1,4.7v11.1h-6.2L140.4,363.3L140.4,363.3z"/>
	<path class="st1" d="M171.1,363.3v-30h7.4l5.7,21.4l5.7-21.4h7.4v30h-6V345l-4.9,18.3H182l-4.9-18.3v18.3H171.1z"/>
	<path class="st1" d="M219.3,351.8c0,1.1-0.1,2-0.2,3h-12.6c0.1,1.4,0.4,2.5,1,3.3s1.5,1.2,2.7,1.2c1.7,0,2.7-0.7,3.1-2.1h5.6
		c-0.3,2.2-1.2,3.8-2.7,5s-3.5,1.8-6,1.8c-3.2,0-5.6-0.9-7.4-2.8c-1.7-1.9-2.6-4.5-2.6-8s0.9-6.1,2.6-8.1c1.7-1.9,4.1-2.9,7.2-2.9
		c2.9,0,5.2,0.9,6.8,2.6C218.5,346.4,219.3,348.9,219.3,351.8z M206.5,350.8h6.8c0-2.9-1.1-4.4-3.3-4.4S206.6,347.8,206.5,350.8z"/>
	<path class="st1" d="M237.8,362.4c-0.8,0.8-1.9,1.3-3.1,1.3s-2.2-0.4-3.1-1.3c-0.8-0.8-1.3-1.8-1.3-3s0.4-2.2,1.3-3
		c0.8-0.8,1.9-1.3,3.1-1.3s2.2,0.4,3.1,1.3c0.8,0.8,1.3,1.8,1.3,3S238.7,361.6,237.8,362.4z M231.6,352.9v-19.6h6.4v19.6H231.6z"/>
</g>
</svg>
