<?xml version="1.0" encoding="utf-8"?>
<!-- Generator: Adobe Illustrator 24.1.2, SVG Export Plug-In . SVG Version: 6.00 Build 0)  -->
<svg version="1.1" id="Layer_1" xmlns="http://www.w3.org/2000/svg" xmlns:xlink="http://www.w3.org/1999/xlink" x="0px" y="0px"
	 viewBox="0 0 320 418" style="enable-background:new 0 0 320 418;" xml:space="preserve">
<style type="text/css">
	.st0{fill:none;stroke:#FEFEFE;stroke-width:0.25;stroke-miterlimit:10;}
	.st1{fill:#E5E7EF;}
	.st2{fill:#FFFFFF;}
</style>
<path class="st0" d="M321,209.5c0,68.3,0,136.6,0.1,204.9c0,3.4-0.7,4.1-4.1,4.1c-104.6-0.1-209.2-0.1-313.8,0
	c-3.4,0-4.1-0.7-4.1-4.1c0.1-136.9,0.1-273.9,0-410.8c0-3.4,0.7-4.1,4.1-4.1c104.6,0.1,209.2,0.1,313.8,0c3.4,0,4.1,0.7,4.1,4.1
	C321,72.2,321,140.9,321,209.5z"/>
<g>
	<path d="M159.9,395.8H51.5c-12.2,0-16.5-3.3-16.5-12.8c0-15.4,0-31,0-46.4c0-8.5,4.8-12.2,15.8-12.2h218.5c11.3,0,16,3.6,16,12.4
		c0,15.6,0,31.2,0,46.8c0,8.6-4.6,12.2-15.8,12.2C232.9,395.8,196.4,395.8,159.9,395.8z"/>
	<g>
		<path class="st1" d="M37.3,26.1h243.3c8.3,0,15.1,6.7,15.1,15.1v243.3c0,8.3-6.7,15.1-15.1,15.1H37.3c-8.3,0-15.1-6.7-15.1-15.1
			V41.2C22.2,32.8,29,26.1,37.3,26.1z"/>
	</g>
	<g>
	</g>
</g>
</svg>
