<?xml version="1.0" encoding="utf-8"?>
<!-- Generator: Adobe Illustrator 24.1.2, SVG Export Plug-In . SVG Version: 6.00 Build 0)  -->
<svg version="1.1" id="Layer_1" xmlns="http://www.w3.org/2000/svg" xmlns:xlink="http://www.w3.org/1999/xlink" x="0px" y="0px"
	 viewBox="0 0 320 418" style="enable-background:new 0 0 320 418;" xml:space="preserve">
<style type="text/css">
	.st0{fill:#E5E7EF;}
	.st1{fill:#FFFFFF;}
</style>
<path d="M310.5,0.1H10C1.8,2.2-0.3,4.9-0.4,13.7c0,1.2,0,2.3,0,3.5v134c0,84,0,168,0,252c0,11,3.5,14.8,13.9,14.8
	c97.8,0,195.7,0,293.5,0c9,0,11.4-1.9,13.5-10.4V10.1C319.5,4.3,316.5,0.7,310.5,0.1z M307.5,173.4c0,51.8,0,103.6,0.1,155.4
	c0,3.9-0.6,5.2-5,5.2c-40-0.2-79.9-0.2-119.9,0c-2.8,0.2-5.4-1.2-6.9-3.5c-4.3-6.1-9-11.9-13.4-17.9c-1.7-2.4-2.6-2.7-4.5-0.1
	c-4.6,6.5-9.6,12.7-14.3,19.1c-1.1,1.7-3,2.6-4.9,2.4C98,334,57.2,334,16.5,334.2c-4.2,0-3.5-2.1-3.5-4.6c0-44.5,0-89,0-133.4
	c0-59.4,0-118.8-0.1-178.3c0-3.8,0.9-4.9,4.8-4.9c95,0.1,190,0.1,285,0c4.4,0,4.9,1.4,4.9,5.3C307.5,70,307.5,121.7,307.5,173.4z"/>
<g>
	<path class="st0" d="M38.4,25.8h243.3c8.3,0,15.1,6.7,15.1,15.1v243.3c0,8.3-6.7,15.1-15.1,15.1H38.4c-8.3,0-15.1-6.7-15.1-15.1
		V40.8C23.3,32.5,30.1,25.8,38.4,25.8z"/>
</g>
<g>
</g>
</svg>
