<?xml version="1.0" encoding="utf-8"?>
<!-- Generator: Adobe Illustrator 24.1.2, SVG Export Plug-In . SVG Version: 6.00 Build 0)  -->
<svg version="1.1" id="Layer_1" xmlns="http://www.w3.org/2000/svg" xmlns:xlink="http://www.w3.org/1999/xlink" x="0px" y="0px"
	 viewBox="0 0 320 418" style="enable-background:new 0 0 320 418;" xml:space="preserve">
<style type="text/css">
	.st0{fill:#010101;}
	.st1{fill:#E5E7EF;}
</style>
<path class="st0" d="M317.3,21.3c0-11.3-6.4-17.7-17.6-17.7c-93.1,0-186.3,0-279.4,0C9.4,3.6,3,10,2.8,21
	c-0.1,8.3-0.1,16.6-0.1,24.9c0,113,0,226,0,339c0,3,0,5.9,1.9,8.5c3.9,5.6,7.5,11.4,11.3,17c3.6,5.3,6.7,5.4,10.3,0.2
	c3.5-5,6.9-10.1,10.5-15.4c3.6,5.4,6.8,10.5,10.2,15.4c3.6,5.2,6.6,5.2,10.3-0.1c3.5-5,6.8-10,10.4-15.3c3.7,5.4,6.9,10.5,10.3,15.4
	c3.4,4.9,6.5,5.1,10,0.1s6.8-10.1,10.5-15.6c3.7,5.6,6.9,10.7,10.3,15.6c3.4,4.9,6.6,4.9,10-0.1c2.9-4.2,5.8-8.5,8.5-12.9
	c1.5-2.4,2.3-2.1,3.7,0.1c2.5,3.9,5.2,7.7,7.8,11.6c4.6,6.8,7.3,6.8,11.7,0.1c2.5-3.7,5.1-7.4,7.4-11.2c1.5-2.5,2.4-3.2,4.2-0.2
	c2.6,4.4,5.6,8.6,8.6,12.8c3.4,4.7,6.4,4.7,9.7,0c3-4.4,6-8.8,8.8-13.3c1.3-2.1,2.1-2,3.4,0c2.9,4.5,5.8,8.9,8.9,13.2
	c3.5,4.9,6.6,4.8,10-0.2c2.7-4,5.6-7.9,7.9-12.1c2-3.6,3.1-2.6,4.8,0.2c2.5,4.1,5.3,8,8.1,12c3.5,4.9,6.6,4.9,10.1,0
	c3-4.4,5.9-8.8,8.8-13.3c1.2-1.9,1.9-1.8,3.1,0c3,4.6,6,9.2,9.2,13.6c3.3,4.6,6,4.6,9.3,0c3.1-4.3,6.1-8.7,8.9-13.2
	c1.4-2.2,2.2-2.5,3.7-0.1c2.8,4.5,5.8,8.9,8.9,13.2c3.3,4.6,6.1,4.7,9.3,0.1c4.2-6,8.1-12.1,12.2-18.2c1.1-1.7,1.6-3.7,1.4-5.7
	C317.3,265.2,317.3,143.3,317.3,21.3z M308.5,392.2c-3.2,4.6-6.2,9.4-9.6,14.6c-3.8-5.6-7.2-10.9-10.8-16.1c-3.1-4.5-6.2-4.5-9.3,0
	c-3.6,5.2-7,10.5-10.8,16.1c-3.7-5.5-7.2-10.9-10.8-16.1c-3.1-4.5-6.2-4.5-9.3,0c-3.6,5.2-7,10.5-10.8,16.1c-3.3-5-6.4-9.8-9.6-14.6
	c-4.4-6.6-7.2-6.6-11.7,0.1c-3.1,4.5-6.1,9.1-9.1,13.7c-0.2,0.2-0.4,0.4-0.7,0.6c-3.4-5.2-6.8-10.5-10.2-15.6c-3.3-4.9-6.6-4.9-10,0
	c-3.4,4.9-6.8,10.2-10.6,15.8c-3.5-5.4-6.9-10.6-10.3-15.7c-3.3-5-6.6-5-10-0.1c-3.6,5.2-7,10.4-10.6,15.8c-3.4-5.1-6.5-10-9.7-14.9
	c-4.1-6.1-7.1-6.2-11.1-0.2c-3.2,4.8-6.3,9.7-9.8,15c-3.5-5.3-6.8-10.2-10.1-15c-4.1-6-7-6-11.1,0.2c-3.2,4.8-6.3,9.7-9.7,14.9
	c-3.8-5.6-7.2-10.9-10.7-16c-3.2-4.6-6.5-4.5-9.7,0.1C59,396,55.8,401,52.1,406.8C48.4,401.3,45,396,41.5,391
	c-3.4-4.9-6.6-4.9-10,0.1s-6.7,10.2-10.3,15.7c-3.8-5.8-7.3-11.2-10.9-16.5c-1.1-1.5-1-3.1-1-4.8c0-121.2,0-242.3,0-363.4
	c0-9,2.9-11.8,12-11.8h277c9.5,0,12.3,2.8,12.3,12.6c0,120.8,0,241.6,0,362.5C310.8,387.7,310,390.2,308.5,392.2L308.5,392.2z"/>
<g>
	<path class="st1" d="M37.6,27.5h243.3c8.3,0,15.1,6.7,15.1,15.1v243.3c0,8.3-6.7,15.1-15.1,15.1H37.6c-8.3,0-15.1-6.7-15.1-15.1
		V42.5C22.5,34.2,29.3,27.5,37.6,27.5z"/>
</g>
<g>
</g>
</svg>
